<svg width="611" height="633" viewBox="0 0 611 633" fill="none" xmlns="http://www.w3.org/2000/svg">
<path d="M487.912 492.349C491.231 488.689 272.334 285.593 -0.937352 38.9206L-12.7977 52.0939C260.48 298.873 484.541 496.013 487.912 492.349Z" fill="#B4703D"/>
<path d="M-0.937299 38.9206L-12.7977 52.0939C39.7698 99.6205 90.5774 145.267 138.339 187.984L149.647 175.43C102.237 132.319 51.6834 86.4442 -0.937299 38.9206Z" fill="#030800"/>
<path d="M482.211 483.954C482.814 483.279 265.732 284.946 -2.74885 40.8929L-5.17485 43.3274C263.519 287.369 481.609 484.629 482.211 483.954Z" fill="#FCFBE6"/>
<path d="M489.227 420.425C523.423 435.352 546.475 458.12 540.752 471.271L505.985 551.108C497.704 570.069 463.354 573.38 429.157 558.453C394.96 543.526 374.047 516.04 382.265 496.923L417.041 417.245C422.764 404.094 455.083 405.494 489.227 420.425Z" fill="#030800"/>
<g clip-path="url(#clip0_1203_15624)">
<path d="M327.11 605.374C327.355 604.733 327.726 604.147 328.201 603.651C325.752 602.46 325.006 599.523 326.708 595.79C327.482 594.017 328.568 592.398 329.915 591.012C328.381 590.367 327.072 589.281 326.154 587.891C325.685 587.033 325.392 586.089 325.291 585.115C325.191 584.141 325.286 583.157 325.571 582.221C325.856 581.284 326.324 580.414 326.949 579.662C327.574 578.909 328.343 578.289 329.21 577.838C325.304 576.687 323.779 574.136 325.468 571.826C327.4 570.061 329.663 568.698 332.125 567.815C334.587 566.932 337.199 566.547 339.811 566.681L340.226 566.128C339.892 565.86 339.52 565.647 339.231 565.37C338.368 564.643 337.709 563.702 337.319 562.642C336.928 561.582 336.82 560.439 337.004 559.324C337.188 558.209 337.659 557.162 338.369 556.285C339.08 555.407 340.007 554.73 341.058 554.32C342.004 553.808 343.008 553.41 344.048 553.135C346.421 548.973 350.15 545.756 354.611 544.021C357.217 542.712 359.954 541.683 362.776 540.952C362.766 540.415 362.824 539.88 362.946 539.357C363.609 536.776 364.969 534.427 366.876 532.569C368.783 530.711 371.165 529.414 373.76 528.822L375.037 528.579C378.918 524.928 383.868 522.624 389.157 522.009C390.939 521.696 392.746 521.542 394.555 521.55C394.498 521.372 394.464 521.188 394.451 521.001C394.033 518.508 394.538 515.948 395.872 513.802C397.206 511.656 399.277 510.071 401.695 509.346C402.909 508.9 404.189 508.657 405.482 508.625C409.792 504.765 415.23 502.402 420.989 501.886C423.476 501.467 426.01 501.399 428.516 501.685C429.447 499.174 430.996 496.94 433.02 495.189C435.043 493.438 437.475 492.227 440.09 491.668C441.418 491.294 442.838 491.449 444.055 492.1C445.271 492.751 446.189 493.849 446.616 495.162C446.573 494.934 446.749 494.616 446.88 494.307C447.959 491.769 449.646 489.536 451.792 487.806C453.937 486.076 456.475 484.903 459.182 484.389C460.368 484.242 461.571 484.441 462.647 484.96C466.64 482.356 471.222 480.8 475.973 480.436C478.42 480.135 480.9 480.239 483.314 480.744C484.442 478.449 486.081 476.445 488.105 474.886C490.129 473.327 492.484 472.254 494.987 471.75C495.87 471.518 496.798 471.519 497.681 471.752C498.564 471.985 499.371 472.443 500.025 473.081C500.68 473.719 501.158 474.516 501.414 475.393C501.67 476.271 501.695 477.2 501.487 478.09C503.07 475.612 505.171 473.509 507.647 471.925C510.122 470.342 512.912 469.317 515.823 468.922C516.638 468.765 517.48 468.83 518.262 469.109C519.043 469.389 519.736 469.873 520.267 470.512C520.799 471.15 521.15 471.92 521.284 472.74C521.418 473.561 521.33 474.402 521.03 475.177C522.848 472.809 525.141 470.849 527.76 469.421C530.38 467.993 533.268 467.128 536.241 466.883C540.565 467.244 541.163 471.393 538.02 476.253L539.658 475.42C547.1 471.778 554.579 470.829 556.369 473.282C557.117 474.229 556.803 475.568 555.714 477.053C557.661 475.981 559.84 475.403 562.062 475.372C566.825 475.555 567.641 479.851 563.902 485.062C565.223 485.191 566.504 485.588 567.667 486.23C568.829 486.872 569.849 487.745 570.663 488.795C571.538 489.989 571.993 491.44 571.958 492.92C571.923 494.401 571.398 495.828 570.467 496.978C574.04 496.866 576.501 497.629 576.868 499.312C577.235 500.994 573.818 504.912 568.491 507.489C571.008 507.294 572.926 507.687 573.745 508.762C575.626 511.198 571.005 516.245 563.435 519.959L561.999 520.611C563.352 521.016 564.23 521.655 564.467 522.651C565.04 525.668 558.882 530.344 550.694 533.039L550.465 533.083C552.347 533.53 553.496 534.353 553.548 535.622C553.665 538.725 547.283 542.97 539.328 545.147C538.05 545.39 536.818 545.625 535.677 545.842C538.577 547.421 539.42 549.866 537.394 552.145C533.417 555.412 528.33 557.008 523.203 556.598C520.351 560.864 516.043 563.941 511.086 565.25C508.509 566.224 505.832 566.908 503.104 567.29C503.099 567.644 503.071 567.997 503.021 568.347C502.4 571.069 501.03 573.562 499.066 575.543C497.102 577.524 494.623 578.914 491.91 579.555C489.977 580.01 487.944 579.682 486.251 578.642L485.619 580.041C484.184 582.55 482.185 584.69 479.78 586.29C477.375 587.891 474.631 588.907 471.765 589.26C470.798 589.304 469.838 589.077 468.993 588.604C468.799 589.457 468.426 590.259 467.897 590.956C467.369 591.652 466.698 592.228 465.93 592.644C464.129 593.689 462.121 594.324 460.047 594.506C457.974 594.688 455.886 594.411 453.93 593.696C453.854 594.227 453.659 594.733 453.361 595.178C451.115 598.541 443.557 601.069 436.416 600.818C434.9 600.782 433.391 600.594 431.912 600.254C431.658 602.692 430.682 604.998 429.109 606.876C427.536 608.754 425.438 610.117 423.084 610.79C421.615 611.311 420.03 611.413 418.507 611.084C416.983 610.755 415.581 610.008 414.456 608.927C413.868 610.259 412.896 611.384 411.665 612.158C409.327 613.498 406.673 614.186 403.98 614.148C401.286 614.111 398.652 613.351 396.352 611.946V611.946C395.753 613.113 394.842 614.09 393.72 614.768C391.29 616.161 388.532 616.878 385.732 616.844C382.933 616.811 380.193 616.028 377.796 614.577V614.577C377.23 615.459 376.488 616.213 375.616 616.792C373.251 618.183 370.563 618.927 367.821 618.95C365.079 618.974 362.378 618.275 359.99 616.924C359.198 616.49 358.5 615.904 357.936 615.198C357.372 614.493 356.953 613.682 356.704 612.814C351.361 616.056 345.553 617.588 343.169 616.242C340.786 614.895 341.845 611.758 345.451 608.088C343.63 608.603 341.767 608.957 339.884 609.147C331.771 610.502 326.14 608.732 327.11 605.374Z" fill="black" fill-opacity="0.4"/>
<path d="M309.512 542.327C309.733 541.399 310.148 540.529 310.73 539.774C309.414 537.657 308.601 535.266 308.351 532.785C308.101 530.305 308.422 527.8 309.289 525.462C310.021 523.018 311.188 520.727 312.733 518.698C310.983 516.52 309.686 514.013 308.921 511.325C306.711 504.168 308.326 497.231 312.457 494.834C310.583 493.465 309.209 491.517 308.547 489.29C307.885 487.064 307.972 484.681 308.793 482.508C311.199 478.498 317.701 477.877 324.032 480.839L324.478 479.949C324.128 479.353 323.787 478.802 323.475 478.151C319.731 470.387 320.774 462.185 325.753 459.769C326.74 459.32 327.819 459.115 328.902 459.17C329.84 456.634 331.355 454.352 333.327 452.505C335.299 450.659 337.674 449.298 340.263 448.531C342.991 447.437 345.904 446.883 348.842 446.898C348.857 445.994 348.938 445.092 349.087 444.2C350.284 436.063 355.497 430.146 360.746 430.899C361.21 431.019 361.665 431.17 362.109 431.35C363.889 429.231 366.23 427.658 368.864 426.813C371.498 425.968 374.316 425.886 376.995 426.576C378.94 426.886 380.833 427.467 382.618 428.3L382.445 427.386C381.332 418.789 384.948 411.186 390.548 410.547C391.918 410.355 393.314 410.585 394.551 411.206C396.56 408.995 399.153 407.398 402.03 406.6C404.907 405.801 407.95 405.832 410.81 406.691C413.655 407.237 416.367 408.329 418.797 409.907C420.692 402.206 426.109 396.865 431.208 398.074C433.132 398.793 434.788 400.086 435.955 401.778C437.122 403.469 437.742 405.479 437.733 407.535C437.655 407.123 437.896 406.651 438.046 406.197C440.252 398.389 446.186 393.282 451.183 394.699C452.626 395.17 453.879 396.094 454.757 397.334C456.838 395.988 459.197 395.135 461.656 394.84C464.115 394.544 466.609 394.814 468.949 395.627C471.777 396.465 474.39 397.907 476.608 399.853C479.041 392.997 484.303 388.585 488.875 389.752C493.447 390.918 496.15 396.939 495.446 403.94C499.169 396.649 505.758 392.506 510.675 394.744C512.696 396.084 514.232 398.04 515.057 400.322C515.882 402.604 515.952 405.091 515.257 407.416C519.793 400.68 526.839 397.445 531.378 400.181C535.916 402.916 536.292 410.375 532.709 417.403C533.255 417.107 533.824 416.856 534.411 416.653C542.254 413.882 550.089 415.8 551.863 420.909C552.255 421.942 552.418 423.047 552.342 424.149C552.265 425.251 551.951 426.324 551.42 427.292C552.469 426.812 553.611 426.568 554.765 426.578C555.918 426.587 557.056 426.85 558.098 427.347C562.793 429.911 563.438 437.792 559.67 445.091C562.927 447.553 565.342 450.965 566.584 454.858C567.487 457.145 567.913 459.593 567.835 462.052C567.757 464.51 567.176 466.926 566.13 469.151C567.772 469.622 569.252 470.538 570.409 471.796C571.565 473.055 572.353 474.609 572.686 476.286C573.111 480.515 569.511 484.468 563.661 486.528C564.896 486.811 566.047 487.38 567.022 488.189C567.997 488.999 568.769 490.027 569.274 491.19C571.157 496.373 566.166 502.958 558.157 505.856L556.606 506.151C557.97 507.362 558.843 509.033 559.058 510.846C559.597 516.427 552.99 521.473 544.38 522.448C545.283 523.155 546.024 524.048 546.552 525.068C547.08 526.087 547.383 527.207 547.44 528.354C547.471 533.747 540.688 538.116 532.324 538.145C531.047 538.154 529.772 538.032 528.52 537.779C529.945 539.412 530.826 541.449 531.041 543.607C531.256 545.764 530.793 547.935 529.718 549.817C527.022 553.551 521.007 553.748 514.822 550.805C513.712 553.365 511.915 555.566 509.63 557.163C507.346 558.76 504.663 559.69 501.881 559.85C499.102 560.319 496.257 560.233 493.511 559.596C493.624 560.19 493.463 560.837 493.384 561.42C492.319 570.005 486.774 576.412 481.433 575.676C480.197 575.459 479.028 574.959 478.017 574.215C477.007 573.471 476.181 572.502 475.606 571.386C475.363 572.095 475.165 572.796 474.876 573.514C471.764 580.783 465.385 584.791 460.746 583.022C459.566 582.516 458.565 581.667 457.872 580.585C457.765 581.709 457.411 582.794 456.835 583.764C456.258 584.733 455.474 585.563 454.539 586.192C451.012 588.284 445.991 586.493 442.022 582.276C441.936 583.074 441.717 583.853 441.372 584.578C438.921 589.354 430.942 590.162 423.561 586.404C421.881 585.537 420.312 584.468 418.89 583.22C418.571 591 414.503 597.221 409.336 597.399C407.292 597.203 405.352 596.406 403.759 595.108C402.166 593.81 400.992 592.069 400.385 590.104C399.953 591.843 398.894 593.361 397.411 594.364C392.921 597.113 385.801 593.732 381.503 586.783C380.983 588.287 379.981 589.577 378.653 590.451C373.998 593.326 366.561 589.768 362.11 582.517C361.586 583.671 360.762 584.662 359.724 585.387C355.268 588.318 348.029 585.055 343.511 578.195C341.802 575.585 340.719 572.614 340.35 569.514C334.653 572.635 328.541 572.567 326.06 568.966C323.58 565.365 324.446 560.464 328.315 555.94L328.263 555.665C326.315 555.782 324.361 555.628 322.455 555.208C314.181 553.467 308.359 547.708 309.512 542.327Z" fill="#ECE2AC"/>
<path d="M356.057 491.368C355.67 490.826 355.292 490.329 354.943 489.733C350.716 482.913 350.899 475.158 355.343 472.418C356.572 471.769 357.946 471.446 359.335 471.48C360.724 471.515 362.081 471.905 363.277 472.613C359.937 466.477 360.145 459.854 364.014 457.319C364.976 456.752 366.055 456.411 367.168 456.323C368.282 456.234 369.401 456.399 370.441 456.806C371.35 452.776 373.73 449.232 377.113 446.87C378.909 445.521 380.917 444.483 383.055 443.797C382.497 442.545 382.347 441.148 382.628 439.806C383.722 434.862 390.883 431.984 398.712 433.619C400.337 433.973 401.916 434.515 403.416 435.234C403.529 433.772 403.793 432.325 404.204 430.917C406.451 423.575 412.117 418.803 416.886 420.263C416.843 420.034 416.808 419.852 416.765 419.623C417.214 417.813 418.337 416.244 419.904 415.237C420.254 414.207 420.832 413.27 421.593 412.494C422.354 411.718 423.28 411.123 424.301 410.754C425.684 410.457 427.12 410.518 428.473 410.932C429.825 411.346 431.05 412.099 432.032 413.119L433.625 413.289C436.299 413.892 438.828 415.021 441.064 416.609C442.846 409.309 448.178 404.269 452.823 405.326C454.68 405.967 456.294 407.168 457.444 408.764C458.593 410.359 459.222 412.272 459.244 414.239C459.166 413.828 459.407 413.355 459.52 412.955C461.578 405.365 467.216 400.693 471.933 401.879C472.767 402.14 473.541 402.565 474.208 403.129C474.875 403.693 475.423 404.385 475.82 405.165C477.76 404.104 479.898 403.458 482.1 403.267C484.302 403.076 486.519 403.345 488.613 404.057C491.921 404.931 494.925 406.703 497.292 409.177C498.102 407.145 499.544 405.429 501.404 404.282C503.264 403.135 505.444 402.618 507.62 402.807C512.129 403.891 514.632 409.855 513.711 416.708C517.077 409.532 523.612 405.352 528.338 407.579C533.064 409.805 534.27 417.153 531.258 424.451C532.638 423.062 534.404 422.124 536.326 421.758C538.248 421.392 540.235 421.617 542.028 422.402C546.566 425.137 546.784 433.005 542.536 440.017C542.322 440.389 542.046 440.678 541.833 441.05C548.987 438.884 555.94 440.639 557.482 445.271C558.75 448.96 556.321 453.353 551.792 456.394C555.6 459.268 556.007 466.389 552.4 473.043C551.123 475.45 549.37 477.572 547.248 479.28C547.859 480.367 548.376 481.504 548.792 482.68C551.363 490.242 549.479 497.751 544.598 499.438C544.289 499.544 543.966 499.605 543.64 499.62C544.012 504.569 538.439 509.087 530.977 510.128C532.17 514.921 527.597 520.717 520.347 523.375C518.857 523.812 517.329 524.102 515.783 524.243C514.73 528.659 509.156 532.419 502.098 533.099C501.192 533.179 500.282 533.21 499.373 533.191C499.008 537.996 492.821 542.015 485.167 542.051C483.656 542.017 482.151 541.843 480.672 541.533C481.061 542.624 481.193 543.791 481.059 544.941C480.925 546.092 480.528 547.196 479.898 548.168C476.916 552.382 469.23 551.998 462.76 547.309L462.146 546.811C459.411 549.889 455.653 551.867 451.57 552.375C448.011 553.135 444.305 552.8 440.938 551.415C439.217 558.041 434.755 562.679 430.15 562.087C425.546 561.495 422.356 555.898 422.366 548.982L421.973 550.146C419.02 557.006 413.023 561.036 408.595 559.132C407.406 558.519 406.397 557.605 405.669 556.481C404.941 555.357 404.52 554.061 404.447 552.723C404.003 553.302 403.454 553.792 402.83 554.168C398.579 556.681 392.15 553.453 388.312 546.938C387.82 546.104 387.387 545.237 387.015 544.343C383.262 544.815 379.456 544.099 376.129 542.294C372.812 540.673 370.051 538.099 368.2 534.9C363.146 534.678 358.878 528.386 358.598 520.436C358.471 517.784 358.867 515.134 359.765 512.637C358.2 511.316 356.863 509.747 355.809 507.99C351.634 501.444 351.778 493.982 356.057 491.368Z" fill="#FCFBE6"/>
<path d="M445.157 507.895C438.766 494.904 451.392 475.736 473.268 464.943C495.145 454.15 518.069 455.849 524.534 468.732C531 481.614 518.337 500.836 496.415 511.638C474.493 522.44 451.531 520.795 445.157 507.895Z" fill="white"/>
<path d="M578.688 428.214C560.362 411.385 494.657 361.186 437.261 378.407C379.866 395.627 291.297 449.137 297.186 546.142C301.414 615.475 317.274 578.975 354.734 550.393C392.193 521.812 479.501 457.176 542.259 449.022C605.017 440.869 578.688 428.214 578.688 428.214Z" fill="#E61300"/>
<path d="M309.616 578.49C313.906 577.674 320.974 571.072 329.128 563.459C336.336 556.51 343.894 549.935 351.771 543.758C428.362 485.188 489.67 451.216 533.799 442.818C536.263 442.349 538.727 441.88 541.189 441.648C546.955 440.883 552.237 440.067 556.801 439.199C578.478 435.074 579.848 430.835 579.839 430.789C579.024 429.503 577.844 428.491 576.45 427.882L575.979 427.64L575.572 427.244C572.681 424.716 506.274 364.847 445.534 376.406C442.882 376.91 440.257 377.551 437.672 378.328C422.816 382.766 293.09 425.211 300.192 542.303C301.47 563.228 303.944 575.26 307.552 578.078C307.838 578.308 308.174 578.466 308.534 578.538C308.893 578.609 309.265 578.593 309.616 578.49Z" fill="#F4493A"/>
<path d="M437.262 378.407C494.657 361.186 560.362 411.385 578.689 428.214C579.262 428.494 579.813 428.817 580.338 429.179C572.455 430.354 564.501 430.981 556.532 431.057C495.912 431.795 410.59 470.527 372.24 496.91C333.89 523.293 300.261 530.213 303.328 495.816C323.947 430.09 390.921 392.34 437.262 378.407Z" fill="#FF685A"/>
<g opacity="0.3">
<path d="M457.439 386.312C451.564 383.262 445.322 380.52 439.106 377.914C441.114 377.532 443.076 377.158 445.084 376.776C482.245 393.294 515.185 418.033 541.428 449.133L538.097 449.767C515.605 423.544 488.203 401.986 457.439 386.312V386.312Z" fill="white"/>
<path d="M481.465 469.021C471.977 459.89 461.8 451.503 451.027 443.936C442.915 438.124 434.428 432.857 425.621 428.169C408.84 419.935 391.283 413.392 373.21 408.639C376.024 406.777 378.81 405.016 381.66 403.337C388.964 405.398 396.118 407.96 403.07 411.007C412.348 414.431 421.381 418.487 430.105 423.149C438.775 427.787 447.094 433.058 454.992 438.919C465.672 446.629 475.651 455.268 484.813 464.737L486.536 466.588L481.548 468.958L481.465 469.021Z" fill="white"/>
<path d="M505.515 458.714C489.441 442.492 471.569 428.16 452.248 415.999C441.873 409.402 431.044 403.55 419.843 398.486C413.999 396.094 408.015 393.965 401.975 392.036C405.643 390.438 409.485 388.76 413.18 387.299C416.03 388.367 418.918 389.38 421.669 390.42C433.116 395.351 444.164 401.165 454.713 407.811C475.954 421.159 495.115 437.572 511.576 456.519L505.515 458.714Z" fill="white"/>
<path d="M491.592 378.913C503.322 382.128 514.695 386.533 525.532 392.061C544.28 406.499 561.258 423.107 576.111 441.539C574.08 442.361 572.005 443.072 569.896 443.669L567.932 441.296C545.202 417.374 519.553 396.415 491.592 378.913V378.913Z" fill="white"/>
<path d="M297.617 523.518C311.73 523.659 325.717 526.185 338.991 530.989C347.78 534.342 356.303 538.356 364.487 542.997L362.084 544.78C342.877 535.269 320.638 532.445 297.045 532.956C297.103 529.773 297.314 526.654 297.617 523.518Z" fill="white"/>
<path d="M298.888 513.52C299.804 508.179 301.044 502.898 302.599 497.707C334.494 498.836 364.466 506.771 389.102 524.957L386.066 527.145C361.033 513.345 330.79 510.954 298.888 513.52Z" fill="white"/>
<path d="M297.93 556.041C297.678 554.716 297.7 553.338 297.56 551.849C312.321 553.128 326.811 556.595 340.556 562.137L338.102 564.404C325.221 559.558 311.671 556.738 297.93 556.041Z" fill="white"/>
<path d="M431.583 459.57C405.767 443.593 376.88 433.244 346.805 429.197C350.352 425.965 354.014 423.09 357.67 419.931C391.001 424.264 422.32 438.334 447.72 460.383C453.857 465.568 459.543 471.267 464.714 477.418L459.394 480.278C450.696 472.636 441.396 465.711 431.583 459.57V459.57Z" fill="white"/>
<path d="M309.145 479.886C310.587 476.77 312.1 473.783 313.713 470.824C351.813 470.014 387.897 479.013 417.565 505.523L411.139 509.777C380.528 488.513 345.667 480.229 309.145 479.886Z" fill="white"/>
<path d="M325.131 453.26C326.755 451.104 328.424 448.939 330.157 446.857C370.349 450.101 408.509 464.056 438.506 492.54L434.95 494.732C404.062 469.022 365.482 456.094 325.131 453.26Z" fill="white"/>
</g>
<path d="M374.75 416.254C372.612 410.221 391.083 398.181 416.047 389.453C441.011 380.724 462.88 378.362 465.019 384.396C467.157 390.43 444.817 391.555 419.87 400.375C394.924 409.195 376.889 422.288 374.75 416.254Z" fill="white"/>
<path d="M309.52 521.206C303.919 518.104 307.349 501.302 317.108 483.722C326.868 466.142 339.342 454.391 344.943 457.493C350.544 460.595 329.37 469.36 327.333 489.259C323.527 523.75 315.084 524.362 309.52 521.206Z" fill="white"/>
</g>
<path opacity="0.3" d="M493.305 551.55C496.94 553.538 509.285 527.08 515.692 515.655C522.098 504.23 530.272 490.033 526.741 487.985C523.21 485.938 521.321 503.685 513.152 515.102C500.138 533.418 489.668 549.508 493.305 551.55Z" fill="white"/>
<path d="M467.191 510.295C470.119 506.336 232.212 326.008 -64.0901 107.515L-74.6049 121.843C221.751 340.333 464.21 514.258 467.191 510.295Z" fill="#B4703D"/>
<path d="M-64.0903 107.515L-74.6051 121.843C-17.5377 163.932 37.5127 204.317 89.2302 242.375L99.1452 228.776C47.8295 190.267 -7.07616 149.608 -64.0903 107.515Z" fill="#030800"/>
<path d="M460.725 502.531C461.269 501.752 225.587 325.898 -65.6796 109.636L-67.6118 112.31C223.655 328.572 460.179 503.257 460.725 502.531Z" fill="#FCFBE6"/>
<path opacity="0.7" d="M547.241 87.7497L339.161 87.8715L339.179 117.632L518.219 117.527L518.283 224.327L339.483 224.431L339.502 255.391L547.341 255.27L547.241 87.7497ZM466.614 108.197L438.054 108.214L438.131 237.334L466.691 237.317L466.614 108.197ZM383.813 108.005L354.773 108.022L354.851 237.382L383.891 237.365L383.813 108.005ZM239.068 65.1301L209.788 65.1472L209.915 277.547L239.195 277.53L239.068 65.1301ZM130.137 114.634L100.857 114.651L100.924 226.011L130.204 225.994L130.137 114.634ZM285.682 155.583L60.3219 155.715L60.3403 186.435L285.7 186.303L285.682 155.583ZM228.557 146.976C184.387 129.962 141.166 95.1874 119.542 55.84C113.786 62.3234 102.752 71.9299 95.5547 76.7341C121.98 118.719 167.84 152.772 220.173 173.381L228.557 146.976ZM227.865 194.977L219.21 168.822C168.102 189.732 122.282 223.358 96.3876 265.614C104.55 270.409 116.557 280.722 122.561 287.918C143.417 247.586 185.156 212.522 227.865 194.977ZM-14.7893 170.399C-39.4962 192.253 -66.1116 233.549 -80.9709 268.117C-72.5679 273.153 -62.484 279.627 -55.28 286.342C-43.3024 248.895 -19.5653 210.481 10.4186 183.584L10.4011 154.304C-14.3303 135.358 -42.6735 96.495 -58.0572 56.904C-64.0537 62.6675 -74.8493 70.1138 -81.5673 73.4777C-65.2245 111.628 -38.8016 149.773 -14.7893 170.399ZM-91.141 117.403L-111.781 117.415L-111.718 223.255L-91.0777 223.243L-91.141 117.403ZM-37.8381 155.772L-70.238 155.791L-70.2203 185.551L-37.8203 185.532L-37.8381 155.772ZM-186.927 74.7394L-213.564 78.595C-210.908 106.193 -207.525 144.111 -203.904 179.629L-178.224 179.374C-181.846 141.696 -184.99 101.618 -186.927 74.7394ZM-138.624 178.871L-145.359 154.395C-184.706 175.778 -207.005 211.071 -215.853 264.356C-208.171 268.192 -196.646 275.625 -190.643 281.862C-184.913 231.698 -167.894 195.928 -138.624 178.871ZM-133.782 249.668C-145.071 235.275 -159.725 211.524 -168.135 193.768L-183.725 211.058C-176.034 228.813 -163.301 251.846 -151.049 270.558L-133.782 249.668ZM-56.341 117.383L-78.661 117.396L-78.6036 213.396L-124.924 213.423L-124.981 117.423L-147.301 117.436L-147.226 242.476L-56.2663 242.423L-56.341 117.383ZM-56.3516 99.623L-193.392 99.7032L-190.255 128.261L-56.3346 128.183L-56.3516 99.623Z" fill="white"/>
<defs>
<clipPath id="clip0_1203_15624">
<rect width="304.739" height="226.15" fill="white" transform="matrix(-0.982371 0.18694 0.186545 0.982446 568.749 352.958)"/>
</clipPath>
</defs>
</svg>
