<svg width="465" height="195" viewBox="0 0 465 195" fill="none" xmlns="http://www.w3.org/2000/svg">
<path opacity="0.04" d="M636.818 27.6155L463.418 27.7181L463.433 52.5181L612.633 52.4298L612.685 141.43L463.685 141.518L463.701 167.318L636.901 167.215L636.818 27.6155ZM569.628 44.6552L545.828 44.6693L545.892 152.269L569.692 152.255L569.628 44.6552ZM500.628 44.4961L476.428 44.5104L476.492 152.31L500.692 152.296L500.628 44.4961ZM380.007 8.76739L355.607 8.78183L355.712 185.782L380.112 185.767L380.007 8.76739ZM289.231 50.0211L264.831 50.0355L264.886 142.836L289.286 142.821L289.231 50.0211ZM418.852 84.1444L231.052 84.2555L231.067 109.856L418.867 109.744L418.852 84.1444ZM371.247 76.9726C334.439 62.7944 298.422 33.8157 280.402 1.02631C275.606 6.42915 266.41 14.4346 260.413 18.4381C282.433 53.4251 320.65 81.8025 364.26 98.9767L371.247 76.9726ZM370.671 116.973L363.458 95.1772C320.868 112.602 282.685 140.625 261.106 175.838C267.908 179.834 277.913 188.428 282.917 194.425C300.297 160.815 335.08 131.594 370.671 116.973ZM168.459 96.4925C147.87 114.705 125.69 149.118 113.307 177.925C120.309 182.121 128.713 187.516 134.716 193.113C144.697 161.907 164.479 129.895 189.465 107.48L189.451 83.0801C168.842 67.2923 145.222 34.9063 132.403 1.91385C127.406 6.71681 118.409 12.9221 112.811 15.7254C126.43 47.5174 148.449 79.3044 168.459 96.4925ZM104.833 52.3302L87.6327 52.3403L87.6848 140.54L104.885 140.53L104.833 52.3302ZM149.252 84.3039L122.252 84.3199L122.266 109.12L149.266 109.104L149.252 84.3039ZM25.0116 16.7774L2.81353 19.9905C5.02713 42.9892 7.84582 74.5875 10.8633 104.186L32.2632 103.973C29.2446 72.5749 26.6249 39.1764 25.0116 16.7774ZM65.263 103.554L59.6509 83.1569C26.8614 100.976 8.27883 130.387 0.90509 174.792C7.30698 177.988 16.9106 184.182 21.9137 189.379C26.689 147.576 40.8714 117.768 65.263 103.554ZM69.2979 162.551C59.8908 150.557 47.6791 130.764 40.6703 115.968L27.6788 130.376C34.0876 145.172 44.6989 164.366 54.9082 179.96L69.2979 162.551ZM133.833 52.313L115.233 52.324L115.28 132.324L76.68 132.347L76.6327 52.3468L58.0327 52.3578L58.0943 156.558L133.894 156.513L133.833 52.313ZM133.824 37.513L19.6239 37.5806L22.238 61.379L133.838 61.313L133.824 37.513Z" fill="#121212"/>
</svg>
