<svg width="424" height="276" viewBox="0 0 424 276" fill="none" xmlns="http://www.w3.org/2000/svg">
<g clip-path="url(#clip0_23_13)">
<path d="M196.566 187.568C196.311 187.157 195.976 186.801 195.582 186.521C197.091 185.375 197.255 183.247 195.582 180.891C194.82 179.76 193.852 178.783 192.728 178.01C193.715 177.363 194.491 176.441 194.959 175.359C195.201 174.692 195.303 173.982 195.257 173.273C195.212 172.565 195.019 171.874 194.693 171.244C194.366 170.613 193.912 170.057 193.359 169.611C192.807 169.164 192.167 168.836 191.481 168.648C194.073 167.339 194.926 165.375 193.286 164C191.693 163.052 189.927 162.431 188.09 162.172C186.254 161.914 184.384 162.023 182.591 162.495L182.23 162.167C182.427 161.938 182.657 161.742 182.821 161.513C183.314 160.893 183.639 160.157 183.765 159.376C183.891 158.594 183.814 157.794 183.541 157.051C183.267 156.308 182.807 155.648 182.204 155.134C181.601 154.62 180.876 154.269 180.098 154.115C179.372 153.891 178.624 153.749 177.867 153.689C175.679 151.144 172.699 149.403 169.404 148.747C167.435 148.182 165.411 147.831 163.368 147.699C163.368 147.339 163.171 147.012 163.039 146.619C162.235 144.935 160.984 143.503 159.423 142.476C157.862 141.449 156.05 140.867 154.182 140.792H153.264C150.094 138.77 146.353 137.829 142.602 138.108C141.335 138.128 140.073 138.259 138.83 138.501C138.83 138.501 138.83 138.239 138.83 138.108C138.791 136.33 138.103 134.627 136.895 133.319C135.687 132.011 134.042 131.188 132.269 131.005C131.356 130.856 130.425 130.856 129.513 131.005C126.025 128.909 121.953 127.99 117.9 128.386C116.109 128.429 114.332 128.715 112.618 129.238C111.646 127.621 110.278 126.277 108.643 125.332C107.008 124.388 105.158 123.873 103.269 123.837C102.302 123.753 101.341 124.048 100.588 124.659C99.8352 125.27 99.3497 126.149 99.2341 127.11C99.2341 126.946 99.2341 126.75 98.9389 126.553C97.8516 124.945 96.3862 123.627 94.6707 122.714C92.9552 121.801 91.0417 121.321 89.0974 121.316C88.2651 121.37 87.4667 121.666 86.8011 122.167C83.6371 120.868 80.1937 120.395 76.7956 120.792C75.0689 120.906 73.3729 121.304 71.7765 121.971C70.6511 120.553 69.2131 119.414 67.5744 118.642C65.9358 117.87 64.1406 117.486 62.3287 117.519C61.6829 117.469 61.035 117.587 60.4487 117.862C59.8623 118.137 59.3575 118.559 58.9838 119.087C58.6101 119.615 58.3803 120.231 58.3168 120.874C58.2533 121.517 58.3584 122.166 58.6218 122.756C57.2017 121.244 55.4679 120.059 53.5415 119.285C51.615 118.51 49.5423 118.164 47.4681 118.272C46.9497 118.351 46.458 118.554 46.0341 118.862C45.6102 119.17 45.2666 119.575 45.032 120.043C44.7975 120.512 44.6788 121.029 44.686 121.552C44.6932 122.076 44.826 122.589 45.0734 123.051C43.4897 121.637 41.6258 120.571 39.6025 119.923C37.5792 119.274 35.4419 119.057 33.3293 119.287C30.3768 120.105 30.5409 123.051 33.3293 125.997L32.2467 125.833C26.6043 124.295 21.2571 124.622 20.3386 126.553C19.9777 127.306 20.3386 128.19 21.2899 129.074C19.7985 128.587 18.2098 128.475 16.6644 128.747C13.3839 129.499 13.5808 132.609 16.6644 135.686C15.7845 135.922 14.9603 136.33 14.2395 136.887C13.5188 137.443 12.9157 138.136 12.4654 138.927C12.0175 139.865 11.8904 140.923 12.1038 141.94C12.3171 142.958 12.859 143.877 13.6464 144.557C11.186 144.95 9.54578 145.801 9.51297 147.012C9.48017 148.223 12.367 150.58 16.402 151.66C14.6305 151.856 13.3183 152.38 12.8919 153.231C11.9077 155.162 15.7787 158.043 21.5195 159.778L22.6349 160.04C21.7492 160.498 21.1915 161.054 21.1915 161.774C21.1915 163.935 26.0466 166.357 32.1155 167.143C30.9017 167.699 30.2128 168.452 30.344 169.303C30.6721 171.463 35.6584 173.558 41.4649 174.017C42.3834 174.017 43.2363 174.017 44.0892 174.017C42.285 175.49 41.9897 177.29 43.7284 178.599C46.9156 180.341 50.6575 180.775 54.1603 179.81C56.6817 182.392 60.0694 183.954 63.6737 184.197C65.6006 184.533 67.5592 184.654 69.513 184.557C69.5633 184.801 69.629 185.041 69.7098 185.277C70.499 187.076 71.778 188.619 73.4016 189.73C75.0252 190.841 76.9284 191.475 78.8951 191.562C79.584 191.594 80.2725 191.49 80.9203 191.254C81.5681 191.018 82.1622 190.655 82.6677 190.187C82.8649 190.497 83.0842 190.792 83.3238 191.071C84.5909 192.573 86.1888 193.762 87.9928 194.545C89.7967 195.329 91.7579 195.686 93.7229 195.588C94.4017 195.498 95.0397 195.214 95.56 194.769C95.817 195.327 96.1852 195.826 96.642 196.237C97.0989 196.648 97.6348 196.962 98.2172 197.159C99.6098 197.645 101.092 197.82 102.56 197.673C104.028 197.526 105.446 197.06 106.714 196.308C106.823 196.663 107.014 196.988 107.271 197.257C109.272 199.287 114.882 200.04 119.803 198.927C120.84 198.703 121.851 198.374 122.821 197.945C123.322 199.594 124.304 201.057 125.642 202.148C126.98 203.238 128.613 203.906 130.333 204.066C131.426 204.231 132.543 204.093 133.562 203.665C134.58 203.238 135.461 202.538 136.107 201.643C136.682 202.493 137.507 203.145 138.469 203.509C140.305 204.128 142.276 204.232 144.167 203.811C146.058 203.39 147.798 202.459 149.196 201.12C149.786 201.84 150.555 202.394 151.427 202.724C153.291 203.364 155.293 203.496 157.225 203.104C159.158 202.713 160.95 201.813 162.416 200.498C162.931 201.04 163.558 201.464 164.253 201.742C166.072 202.393 168.03 202.554 169.93 202.209C171.831 201.864 173.607 201.026 175.079 199.778C175.571 199.374 175.978 198.876 176.277 198.315C176.575 197.753 176.759 197.138 176.818 196.504C180.984 198.043 185.183 198.337 186.823 197.094C188.463 195.85 187.151 193.82 184.199 191.758C185.541 191.874 186.891 191.874 188.234 191.758C194.007 191.725 197.681 189.761 196.566 187.568Z" fill="#B8B5AA"/>
<path d="M200.47 141.676C200.195 141.064 199.792 140.517 199.289 140.072C199.929 138.42 200.182 136.644 200.028 134.879C199.875 133.115 199.319 131.409 198.404 129.892C197.572 128.3 196.461 126.87 195.123 125.669C196.045 123.976 196.625 122.119 196.829 120.203C197.42 114.965 195.418 110.383 192.236 109.27C194.5 105.997 195.025 102.396 193.155 100.268C191.285 98.1406 186.332 98.2388 182.329 101.119L181.936 100.628C182.1 100.17 182.264 99.7445 182.395 99.2535C183.97 93.3943 182.165 87.8623 178.36 86.8476C177.616 86.6672 176.84 86.6672 176.096 86.8476C175.138 85.1783 173.798 83.7592 172.184 82.7066C170.57 81.654 168.729 80.9979 166.813 80.792C164.776 80.3956 162.682 80.3956 160.645 80.792C160.645 80.17 160.35 79.5808 160.153 78.9589C158.251 73.4925 153.822 70.0882 150.312 71.3321C149.99 71.4518 149.682 71.6054 149.393 71.7903C147.879 70.5595 146.047 69.7804 144.109 69.543C142.17 69.3055 140.204 69.6194 138.436 70.4483C137.137 70.9391 135.903 71.5877 134.762 72.3795C134.779 72.1507 134.779 71.921 134.762 71.6921C134.5 65.7347 130.859 60.9884 126.889 61.2175C125.915 61.2714 124.978 61.6132 124.199 62.1995C122.502 60.9412 120.482 60.19 118.374 60.0336C116.265 59.8771 114.156 60.3217 112.291 61.3157C110.425 62.0599 108.728 63.1734 107.305 64.589C104.943 59.4826 100.481 56.5039 97.1024 58.0424C95.8629 58.7925 94.8838 59.904 94.2971 61.2268C93.7105 62.5497 93.5447 64.0202 93.822 65.4401L93.4611 64.5563C90.8695 59.4499 86.1128 56.7003 82.7995 58.337C81.8605 58.8523 81.1128 59.6557 80.6672 60.6283C79.0362 59.9941 77.282 59.7382 75.5372 59.88C73.7925 60.0217 72.1029 60.5574 70.5962 61.4466C68.773 62.3691 67.1638 63.6626 65.8723 65.2437C63.1495 60.7592 59.0489 58.4024 55.7684 59.81C52.4879 61.2175 51.635 65.7347 53.0784 70.481C49.5683 65.9311 44.4179 63.9344 41.3343 66.1602C40.1025 67.3413 39.2891 68.8902 39.0169 70.573C38.7446 72.2558 39.0284 73.9814 39.8252 75.4892C35.6918 71.463 30.3775 70.1864 27.5562 72.6741C24.735 75.1618 25.4895 80.3337 28.934 84.7199L27.6547 84.4254C21.8154 83.5416 16.6322 85.8983 16.0746 89.6627C15.9927 90.4287 16.073 91.2033 16.3104 91.9364C16.5477 92.6694 16.9368 93.3446 17.4524 93.918C16.6664 93.7248 15.8474 93.7068 15.0536 93.8652C14.2598 94.0236 13.5108 94.3546 12.8597 94.8345C9.84164 97.224 10.4977 102.92 14.1063 107.306C12.1601 109.429 10.9321 112.108 10.5962 114.965C10.2629 116.665 10.2862 118.415 10.6645 120.105C11.0428 121.795 11.7679 123.389 12.7941 124.785C11.717 125.327 10.8104 126.154 10.1738 127.176C9.53718 128.198 9.19525 129.376 9.18555 130.579C9.44799 133.558 12.466 135.849 16.7963 136.471C15.9781 136.831 15.2555 137.376 14.686 138.064C14.1165 138.752 13.7157 139.562 13.5158 140.432C13.1221 144.163 17.3211 148.059 23.2916 149.008C23.6525 149.008 24.0133 149.008 24.407 149.008C23.6014 150.054 23.205 151.357 23.2916 152.674C23.6853 156.602 28.934 159.221 35.0029 158.763H35.167C34.6221 159.364 34.2162 160.077 33.9781 160.852C33.7401 161.627 33.6755 162.444 33.7892 163.247C34.5109 166.979 39.7924 169.106 45.5661 168.026C46.4536 167.865 47.322 167.612 48.1577 167.273C47.3719 168.559 46.998 170.053 47.0859 171.556C47.1739 173.059 47.7194 174.5 48.6497 175.686C51.0117 177.911 55.2107 177.257 59.1145 174.409C60.1966 176.068 61.7227 177.392 63.5199 178.231C65.3172 179.07 67.3138 179.39 69.284 179.155C71.2869 179.134 73.2638 178.699 75.0904 177.879C75.1688 178.312 75.2784 178.738 75.4185 179.155C77.2883 184.916 81.9794 188.615 85.588 187.404C86.413 187.086 87.1547 186.584 87.7571 185.938C88.3595 185.291 88.8068 184.517 89.0653 183.672C89.3027 184.145 89.5656 184.603 89.8526 185.047C92.969 189.663 97.9226 191.758 100.908 189.761C101.66 189.256 102.243 188.538 102.581 187.699C102.824 188.431 103.222 189.102 103.749 189.667C104.275 190.232 104.917 190.677 105.632 190.972C108.322 191.954 111.602 190.088 113.8 186.618C113.953 187.158 114.197 187.667 114.522 188.124C116.851 191.103 122.526 190.612 127.152 187.044C128.193 186.223 129.13 185.278 129.94 184.229C131.219 189.564 134.828 193.329 138.469 192.772C139.86 192.37 141.099 191.564 142.028 190.456C142.957 189.348 143.534 187.99 143.685 186.553C144.217 187.708 145.166 188.62 146.342 189.106C149.82 190.416 154.314 187.142 156.184 181.774C156.75 182.739 157.613 183.497 158.644 183.934C162.286 185.309 166.944 181.872 169.076 176.275C169.581 177.001 170.272 177.577 171.077 177.944C174.555 179.384 179.18 176.209 181.411 170.841C182.25 168.833 182.631 166.664 182.526 164.491C186.889 165.898 191.088 165.047 192.368 162.232C193.647 159.417 192.105 156.111 188.825 153.525V153.329C190.19 153.145 191.524 152.782 192.794 152.249C198.699 149.99 201.947 145.244 200.47 141.676Z" fill="#ECE2AC"/>
<path d="M161.465 112.74H161.269C161.465 112.314 161.695 111.922 161.859 111.463C163.86 106.193 162.712 100.858 159.3 99.5485C158.357 99.2618 157.356 99.2195 156.392 99.4257C155.428 99.6319 154.532 100.08 153.789 100.727C155.331 96.0461 154.314 91.4961 151.263 90.2523C150.526 89.9876 149.738 89.8943 148.959 89.9794C148.18 90.0645 147.431 90.3257 146.769 90.7433C145.597 88.0846 143.483 85.9515 140.831 84.7531C139.399 84.0562 137.856 83.6132 136.271 83.4438C136.505 82.4972 136.436 81.5016 136.075 80.596C134.664 77.3227 129.284 76.2752 124.068 78.4356C122.994 78.9082 121.972 79.4896 121.017 80.1704C120.741 79.1762 120.367 78.2114 119.902 77.2899C117.376 72.5109 112.816 69.9577 109.699 71.5943C109.712 71.4418 109.712 71.2886 109.699 71.1361C109.15 69.9442 108.164 69.0073 106.944 68.5174C106.558 67.8577 106.032 67.2903 105.403 66.8549C104.774 66.4195 104.057 66.1267 103.303 65.997C102.302 65.9642 101.311 66.1913 100.425 66.6561C99.5396 67.1209 98.7902 67.8075 98.2506 68.6483L97.4961 68.9102C95.7281 69.638 94.1141 70.6931 92.7394 72.0199C90.5415 67.2081 86.1784 64.4258 83.1276 65.7678C81.9235 66.4552 80.9619 67.4974 80.3746 68.7514C79.7873 70.0055 79.6031 71.4101 79.8471 72.7727C79.8471 72.4781 79.6175 72.1835 79.4863 71.9217C76.8947 66.9135 72.4004 64.393 69.284 65.9642C68.1839 66.5571 67.3598 67.5556 66.9876 68.7465C65.4913 68.2578 63.9085 68.0897 62.3426 68.2533C60.7767 68.4169 59.2631 68.9084 57.9007 69.6958C55.7565 70.7499 53.9416 72.3685 52.6519 74.3767C51.8093 73.084 50.5764 72.0923 49.1315 71.545C47.6867 70.9978 46.1048 70.9233 44.6147 71.3325C41.6295 72.6745 40.711 77.1263 42.22 81.7416C38.9395 77.2245 33.8548 75.195 30.8695 77.3554C27.8843 79.5158 28.0155 84.7531 31.0992 89.4012C29.9589 88.6229 28.6097 88.2065 27.2282 88.2065C25.8467 88.2065 24.4975 88.6229 23.3572 89.4012C20.5688 91.8889 21.4545 97.3881 25.2927 101.643C25.4895 101.873 25.7192 102.036 25.916 102.265C20.7 101.709 16.0746 103.837 15.6481 107.241C15.2216 109.958 17.4852 112.675 21.0609 114.18C18.7646 116.668 19.4535 121.643 22.7995 125.768C24.0097 127.257 25.5038 128.492 27.1954 129.401C26.9258 130.234 26.7283 131.088 26.6049 131.954C25.7848 137.519 28.0811 142.462 31.6896 142.985C31.9181 143.018 32.1501 143.018 32.3785 142.985C32.805 146.488 37.2665 148.747 42.6465 148.747C42.4168 152.216 46.3534 155.621 51.7662 156.504C52.857 156.612 53.9559 156.612 55.0467 156.504C56.2075 158.159 57.8202 159.445 59.6929 160.211C61.5655 160.977 63.6193 161.19 65.6098 160.825C66.2384 160.764 66.8628 160.666 67.4797 160.531C68.3654 163.804 73.1877 165.768 78.5349 164.786C79.5682 164.563 80.5786 164.246 81.553 163.837C81.433 164.663 81.5101 165.505 81.778 166.296C82.0459 167.086 82.4971 167.803 83.0948 168.386C85.752 170.907 91.0007 169.63 94.8717 165.539C94.9668 165.402 95.0544 165.26 95.1341 165.113C97.4376 166.882 100.302 167.765 103.204 167.601C105.794 167.568 108.317 166.771 110.454 165.31C112.488 169.663 116.195 172.282 119.344 171.267C122.493 170.252 123.937 165.964 123.018 161.185L123.445 161.938C126.397 166.292 131.055 168.288 133.909 166.39C134.649 165.805 135.225 165.04 135.581 164.169C135.938 163.297 136.062 162.348 135.943 161.414C136.316 161.755 136.75 162.022 137.223 162.2C140.503 163.378 144.538 160.301 146.375 155.293C146.605 154.639 146.769 153.984 146.933 153.329C149.542 153.09 152.031 152.121 154.114 150.535C156.197 148.948 157.79 146.808 158.71 144.36C162.22 143.509 164.352 138.599 163.499 133.067C163.208 131.225 162.586 129.451 161.662 127.83C162.64 126.692 163.436 125.412 164.024 124.033C165.861 118.959 164.746 113.82 161.465 112.74Z" fill="#FCFBE6"/>
<path d="M101.695 135.653C104.385 125.833 93.1329 114.278 76.5009 109.663C59.8688 105.047 44.3849 109.466 41.6621 119.09C38.9393 128.713 50.2242 140.465 66.8234 145.047C83.4227 149.63 99.1034 145.473 101.695 135.653Z" fill="white"/>
<path d="M221.432 126.619C216.251 124.888 210.85 123.896 205.391 123.673C194.5 97.9445 163.007 58.3046 111.536 47.2735C79.6487 40.2448 46.2997 44.6244 17.3208 59.6466C1.73849 68.0918 18.2721 70.1867 6.82323 76.3078C-1.41077 80.7923 -4.3304 101.643 10.3662 106.193C29.3929 111.856 59.7702 115.719 94.937 123.28C131.941 131.103 166.353 142.2 187.643 145.473C188.258 150.545 189.189 155.574 190.432 160.53C193.351 173.624 195.418 184.262 203.554 182.429C211.689 180.596 222.384 168.059 213.395 155.424C210.738 151.758 208.507 148.026 206.375 144.786C207.123 144.42 207.783 143.897 208.31 143.253C208.836 142.609 209.217 141.859 209.426 141.054C211.656 142.56 214.051 144.327 216.38 146.03C226.943 154.213 237.966 145.604 239.803 138.632C241.64 131.66 232.553 129.499 221.432 126.619Z" fill="#FF7547"/>
<path opacity="0.2" d="M111.537 47.2735C79.649 40.2448 46.3001 44.6244 17.3211 59.6466C1.73885 68.0918 18.2725 70.1867 6.82359 76.3078C3.75886 78.3601 1.60786 81.5151 0.820312 85.1131C46.0581 81.8398 100.744 91.0705 129.743 100.923C161.794 111.791 187.48 111.398 185.708 92.5763C166.671 69.7229 140.593 53.7947 111.537 47.2735Z" fill="white"/>
<path d="M221.433 126.619C216.251 124.887 210.851 123.896 205.391 123.673C193.155 116.962 158.185 71.463 106.55 60.3665C69.5463 52.3468 48.8136 55.2273 23.5539 65.3092C7.15154 71.8558 18.2724 70.0555 6.8235 76.3075C-1.41051 80.792 26.2439 71.3976 41.2685 69.0408C65.7737 65.1782 86.9 61.0211 120 75.0637C155.921 90.2846 201.651 116.013 187.644 145.473C188.258 150.545 189.189 155.574 190.432 160.53C193.352 173.623 195.418 184.262 203.554 182.429C211.69 180.596 222.384 168.059 213.395 155.424C210.738 151.758 208.507 148.026 206.375 144.785C207.123 144.42 207.783 143.897 208.31 143.253C208.837 142.609 209.217 141.859 209.426 141.054C211.657 142.56 214.051 144.327 216.381 146.029C226.944 154.213 237.966 145.604 239.803 138.632C241.64 131.659 232.553 129.499 221.433 126.619Z" fill="#FF4000"/>
<path d="M24.8009 70.1867C27.4581 72.1179 27.3268 76.7333 24.5056 80.8577C21.6844 84.9821 15.1891 93.0999 13.2864 85.8986C12.6477 83.94 12.4518 81.8645 12.7127 79.8214C12.9736 77.7782 13.6849 75.8181 14.7954 74.0819C17.6494 70.1867 22.1109 68.4191 24.8009 70.1867Z" fill="#FF4000"/>
<path d="M183.707 110.907C185.97 113.296 184.888 117.944 181.312 121.283C177.736 124.622 169.797 131.267 169.338 123.902C169.128 121.872 169.365 119.821 170.034 117.893C170.703 115.964 171.786 114.206 173.209 112.74C176.785 109.27 181.509 108.517 183.707 110.907Z" fill="#FF4000"/>
<path d="M52.4878 62.0033C57.7694 64.1637 59.4425 72.2816 56.2276 80.1703C53.0127 88.059 45.238 104.262 39.3659 93.0999C37.5043 90.0342 36.3449 86.5957 35.9706 83.0307C35.5963 79.4656 36.0164 75.8621 37.2008 72.478C40.2844 64.4583 47.1735 59.8429 52.4878 62.0033Z" fill="#FF4000"/>
<path d="M89.3273 63.6399C94.0184 66.9132 93.8872 75.1947 88.9993 82.1669C84.1113 89.1391 72.9905 103.28 69.5788 90.8739C68.4422 87.4503 68.0851 83.8169 68.5334 80.2382C68.9817 76.6595 70.2242 73.2256 72.1704 70.1865C76.8943 63.3453 84.669 60.3666 89.3273 63.6399Z" fill="#FF4000"/>
<path d="M125.282 72.3797C129.415 76.3077 128.037 84.491 122.165 90.6448C116.293 96.7987 103.204 109.139 101.695 96.3731C101.075 92.8501 101.242 89.2341 102.183 85.7828C103.125 82.3314 104.817 79.1297 107.141 76.4059C113.013 70.1865 121.115 68.4517 125.282 72.3797Z" fill="#FF4000"/>
<path d="M157.07 88.2224C161.203 92.1504 159.825 100.334 153.789 106.488C147.753 112.641 134.828 124.982 133.286 112.249C132.666 108.718 132.835 105.094 133.782 101.637C134.729 98.1794 136.431 94.9735 138.764 92.2486C144.801 86.062 152.903 84.2617 157.07 88.2224Z" fill="#FF4000"/>
<path d="M15.3202 106.455C15.7397 102.901 15.3692 99.2992 14.2353 95.9047C13.1013 92.5101 11.2316 89.4067 8.7592 86.815C5.47872 82.9852 2.78872 83.5416 0.722018 85.8657C-1.11505 93.5907 0.984456 103.247 10.5635 106.062C12.0725 106.52 13.8439 106.946 15.3202 107.371V106.455Z" fill="#FFA36E"/>
<path d="M171.176 142.2C175.867 143.28 180.23 144.196 184.298 144.917C184.512 143.388 184.567 141.841 184.462 140.301C183.904 132.118 175.932 137.944 171.176 142.2Z" fill="#FFA36E"/>
<path d="M40.5466 112.74C40.7307 109.376 40.2264 106.011 39.0646 102.848C37.9028 99.6854 36.1077 96.7918 33.7888 94.3438C25.9813 85.3095 22.0119 99.8103 20.3389 108.616C26.2437 110.023 33.1655 111.365 40.5466 112.74Z" fill="#FFA36E"/>
<path d="M125.249 112.118C120.065 100.367 111.11 116.013 107.304 123.542C106.957 124.244 106.65 124.965 106.386 125.702C113.308 127.339 120.098 128.976 126.692 130.711C128.591 124.555 128.075 117.909 125.249 112.118Z" fill="#FFA36E"/>
<path d="M71.4489 117.289C71.8753 113.736 71.5082 110.132 70.3739 106.736C69.2395 103.34 67.3661 100.237 64.888 97.6495C56.4899 87.8296 52.5206 105.473 51.0771 113.852V114.671C57.6381 115.849 64.1991 117.06 71.4161 118.402L71.4489 117.289Z" fill="#FFA36E"/>
<path d="M160.415 122.56C157.135 110.187 145.883 124.36 140.995 131.3C140.433 132.132 139.918 132.995 139.453 133.885C146.703 135.784 153.592 137.617 160.055 139.254C161.983 133.875 162.11 128.017 160.415 122.56Z" fill="#FFA36E"/>
<path d="M100.186 124.295L100.482 122.854C100.908 119.301 100.541 115.696 99.4065 112.301C98.2722 108.905 96.3987 105.802 93.9206 103.214C85.5226 93.3945 81.5532 111.038 80.1426 119.417C80.1243 119.635 80.1243 119.854 80.1426 120.072C85.0305 121.021 89.984 122.036 95.1344 123.116L100.186 124.295Z" fill="#FFA36E"/>
<path d="M23.6851 70.7757C26.9655 71.5613 30.4101 68.3862 31.6238 63.6726C32.7804 60.1816 33.0509 56.4588 32.4111 52.8379C28.5402 54.2782 24.866 55.8493 21.4543 57.5187C20.825 58.5305 20.36 59.6353 20.0765 60.7921C18.8628 65.4729 20.4702 69.9574 23.6851 70.7757Z" fill="#FF4000"/>
<path d="M99.989 56.6678C102.397 53.3764 104.494 49.8699 106.255 46.1931C98.7911 44.8623 91.2329 44.1289 83.6522 44L83.0617 44.7201C78.141 51.6596 77.977 59.9411 82.6352 63.2471C87.2935 66.5532 95.1339 63.6399 99.989 56.6678Z" fill="#FF4000"/>
<path d="M46.911 66.9135C52.455 68.321 58.6551 62.7891 60.7546 54.5403C61.5324 51.5004 62.1348 48.4184 62.5589 45.3096C55.0829 46.308 47.6998 47.9062 40.4813 50.0886C38.7426 58.0428 41.531 65.4732 46.911 66.9135Z" fill="#FF4000"/>
<path d="M199.814 112.51C196.394 106.61 192.534 100.975 188.267 95.6528C182.526 100.301 180.131 106.913 182.92 111.234C185.708 115.555 193.089 116.013 199.814 112.51Z" fill="#FF4000"/>
<path d="M152.412 87.3059C155.495 92.0849 163.828 92.2486 170.979 87.6332C172.751 86.553 174.981 84.9491 177.146 83.2797C172.115 78.304 166.721 73.7087 161.006 69.5317C160.58 69.7936 160.153 69.9573 159.727 70.2519C152.576 74.8673 149.295 82.4941 152.412 87.3059Z" fill="#FF4000"/>
<path d="M134.5 69.7281C138.832 67.1388 142.802 63.9911 146.31 60.3664C139.684 56.7463 132.759 53.7018 125.61 51.2666C124.807 51.6298 124.029 52.0454 123.281 52.5105C116.162 57.0931 112.882 64.589 115.998 69.4008C119.114 74.2126 127.414 74.3435 134.5 69.7281Z" fill="#FF4000"/>
<g style="mix-blend-mode:multiply">
<path d="M110.815 47.2734C163.302 58.599 193.45 99.6465 202.996 122.232L203.718 123.967H205.522C194.5 97.9444 163.007 58.3044 111.536 47.2734C106.576 46.1883 101.56 45.3688 96.5117 44.8184C101.319 45.3887 106.093 46.2081 110.815 47.2734Z" fill="#FFA36E"/>
</g>
<g style="mix-blend-mode:multiply">
<path d="M87.1953 44.1644C85.719 44.1644 84.21 44.1644 82.7666 44.1644C84.2428 43.9999 85.719 43.9999 87.1953 44.1644Z" fill="#FFA36E"/>
</g>
<g style="mix-blend-mode:multiply">
<path d="M221.432 126.619C216.629 125.115 211.682 124.117 206.67 123.64C211.124 124.051 215.522 124.928 219.792 126.259L222.056 126.848C226.388 127.762 230.611 129.133 234.653 130.94C237.736 132.609 237.671 134.017 237.343 135.293C236.482 137.777 234.893 139.946 232.781 141.516C230.669 143.087 228.132 143.986 225.5 144.099C222.785 144.035 220.171 143.054 218.086 141.316C215.823 139.549 213.592 138.043 211.525 136.57L208.015 134.148L207.064 137.748C206.938 138.204 206.714 138.628 206.408 138.99C206.103 139.351 205.722 139.643 205.292 139.843L202.832 141.218L204.341 143.575C204.931 144.426 205.489 145.342 206.08 146.292C207.72 148.878 209.36 151.562 211.427 154.311C212.86 156.185 213.78 158.398 214.096 160.734C214.413 163.07 214.115 165.448 213.231 167.634C212.356 169.902 210.977 171.943 209.199 173.604C207.421 175.265 205.289 176.503 202.963 177.225C202.57 177.253 202.175 177.253 201.782 177.225C197.321 177.225 195.418 168.583 193.187 158.534L192.564 155.784C191.504 151.454 190.737 147.058 190.268 142.626V140.531L188.201 140.236C176.916 138.501 161.957 134.54 144.439 129.958C129.644 126.063 112.848 121.644 95.6587 117.945C80.6997 114.671 66.4296 112.151 53.8653 109.892C36.8068 106.783 22.0775 104.131 11.2191 100.891C8.86198 100.212 6.77618 98.8154 5.25294 96.8965C3.72971 94.9775 2.8451 92.6318 2.72263 90.1869C2.09934 84.4258 4.5597 77.9119 8.06982 75.9807C14.762 72.3473 14.2043 68.8448 13.1218 65.8661C12.5313 64.164 12.072 62.8219 18.5017 59.3195C35.2576 50.5004 53.7168 45.3766 72.6297 44.2949C53.3052 45.4062 34.4445 50.6413 17.3208 59.6468C1.73849 68.092 18.2721 70.1869 6.82323 76.308C-1.41077 80.7925 -4.3304 101.644 10.3662 106.193C29.3929 111.856 59.7702 115.719 94.937 123.28C131.941 131.103 166.353 142.2 187.643 145.473C188.258 150.545 189.189 155.574 190.432 160.531C193.351 173.624 195.418 184.262 203.554 182.429C211.689 180.596 222.384 168.059 213.395 155.424C210.738 151.758 208.507 148.027 206.375 144.786C207.123 144.42 207.783 143.898 208.31 143.253C208.836 142.609 209.217 141.859 209.426 141.054C211.656 142.56 214.051 144.328 216.38 146.03C226.943 154.213 237.966 145.604 239.803 138.632C241.64 131.66 232.553 129.499 221.432 126.619Z" fill="#FFA36E"/>
</g>
<g style="mix-blend-mode:multiply">
<path d="M89.6885 44.2622C91.5912 44.2622 93.461 44.5241 95.3637 44.7205C93.461 44.5241 91.5584 44.3604 89.6885 44.2622Z" fill="#FFA36E"/>
</g>
<g style="mix-blend-mode:multiply">
<path d="M74.4014 44.2295C76.3259 44.2295 78.2614 44.164 80.2078 44.0331C78.2395 44.0003 76.3369 44.0003 74.4014 44.2295Z" fill="#FFA36E"/>
</g>
<path d="M159.333 101.447C160.744 97.1586 150.968 90.0883 137.485 85.6365C124.002 81.1848 111.93 81.0212 110.52 85.3092C109.109 89.5973 124.232 84.0326 134.894 93.3616C153.232 109.466 157.89 105.702 159.333 101.447Z" fill="white"/>
<path d="M92.5094 51.1032C92.2798 48.3536 81.323 47.0116 68.0698 48.1245C54.8167 49.2374 44.2535 52.4125 44.4832 55.1621C44.7128 57.9117 55.2431 54.2456 68.4963 53.1327C81.7494 52.0197 92.739 53.8201 92.5094 51.1032Z" fill="white"/>
</g>
<path opacity="0.1" d="M320.56 27.24V43.8C323.68 43.44 328.72 43.2 331.96 43.2H397.36C400.84 43.2 405.04 43.44 408.52 43.8V27.24C405.16 27.72 400.96 28.08 397.36 28.08H331.96C328.72 28.08 323.68 27.72 320.56 27.24ZM355.24 101.16H371.92V36.48H355.24V101.16ZM312.88 91.32V108.6C316.84 108.24 321.16 108.12 324.64 108.12H403.84C406.6 108.12 411.64 108.24 415 108.6V91.32C411.88 91.68 408.04 92.28 403.84 92.28H324.64C321.04 92.28 316.72 91.92 312.88 91.32ZM392.56 151.8L383.08 155.76C386.32 160.44 389.92 167.52 392.44 172.44L402.04 168.24C399.76 163.8 395.56 156.24 392.56 151.8ZM406.72 146.4L397.24 150.36C400.48 154.92 404.44 161.88 406.84 166.92L416.44 162.72C414.28 158.52 409.84 150.96 406.72 146.4ZM340.72 157.08H323.08C323.56 160.68 323.92 166.8 323.92 169.56C323.92 177 323.92 221.04 323.92 234.84C323.92 245.28 330.04 250.92 340.36 252.84C345.52 253.68 352.84 254.16 360.64 254.16C373.84 254.16 391.96 253.44 403.36 251.76V234.24C393.4 236.88 374.08 238.32 361.48 238.32C356.2 238.32 351.28 238.2 347.68 237.6C342.28 236.64 339.88 235.32 339.88 230.04C339.88 221.04 339.88 176.88 339.88 169.56C339.88 166.08 340.24 160.68 340.72 157.08ZM332.8 193.92L332.92 209.64C349.24 205.8 372.76 198.72 386.92 193.32C390.88 191.76 396.28 189.48 400.84 187.56L394.48 172.44C389.68 175.2 385.6 177.12 381.4 178.92C368.8 184.08 348.28 190.56 332.8 193.92Z" fill="#B1454A"/>
<defs>
<clipPath id="clip0_23_13">
<rect width="240" height="160" fill="white" transform="translate(0 44)"/>
</clipPath>
</defs>
</svg>
