<svg width="262" height="268" viewBox="0 0 262 268" fill="none" xmlns="http://www.w3.org/2000/svg">
<g clip-path="url(#clip0_1203_16936)" filter="url(#filter0_d_1203_16936)">
<path d="M257.949 214.206C259.569 185.239 204.041 158.791 133.935 154.71C63.8298 150.629 5.67 171.284 3.99961 200.05C2.32922 228.816 57.8569 255.466 128.013 259.546C198.169 263.627 256.329 243.123 257.949 214.206Z" fill="black" fill-opacity="0.4"/>
<path d="M118.75 0C56.2875 0 5.61914 19.3955 5.61914 43.3249V188.413C5.61914 222.922 56.2369 250.882 118.75 250.882C181.263 250.882 231.779 222.922 231.779 188.413V43.3249C231.779 19.3955 181.162 0 118.75 0Z" fill="#030800"/>
<path d="M226.971 43.3249C226.971 21.8135 178.53 4.38281 118.75 4.38281C58.9705 4.38281 10.5293 21.8135 10.5293 43.3249C10.5293 64.8362 59.0211 82.2669 118.75 82.2669C178.479 82.2669 226.971 64.8362 226.971 43.3249Z" fill="#FCFBE6"/>
<path d="M79.2678 168.766C101.793 166.398 88.784 152.796 85.0383 146.549C68.3344 137.582 71.3208 133.501 77.5975 126.851C79.9259 114.408 84.279 114.257 75.4209 113.199C68.4356 106.549 65.2973 112.897 72.7888 105.491C72.7888 105.038 80.179 107.154 62.2096 102.065C60.0331 101.813 60.1343 101.209 65.1455 96.7253C70.7641 91.0326 68.2332 94.9117 55.0219 92.6447C64.4874 89.4709 30.6748 81.6624 26.0179 78.9923C12.0981 70.9319 7.79554 73.1989 12.2499 150.579C12.7914 163.075 14.11 175.525 16.1981 187.859C17.2168 194.849 19.2992 201.644 22.3735 208.01C26.1192 209.924 42.6206 224.282 47.6823 225.239C66.2591 239.949 63.8294 230.831 76.2814 231.436C74.5098 239.899 90.0494 233.048 107.259 232.997C108.12 229.773 80.9888 219.798 78.3061 217.531C75.6234 215.264 97.389 220.756 113.739 215.919C100.064 208.48 87.0581 199.884 74.8641 190.227C94.0988 181.36 87.7716 175.466 79.2678 168.766Z" fill="#113000"/>
<path d="M82.6087 31.9901C96.3261 26.1463 98.9076 11.5367 136.77 23.2244C174.632 34.912 171.038 34.912 150.791 50.9322C130.544 66.9523 141.022 58.2874 106.703 56.776C40.5453 53.8541 82.6087 31.9901 82.6087 31.9901Z" fill="#E61300"/>
<path d="M135.099 53.4004C133.39 53.2881 131.696 53.0183 130.037 52.5944C122.418 50.9007 114.657 49.9225 106.854 49.6725C73.5982 48.2115 72.2821 41.9646 72.2821 41.8639C72.029 40.1007 77.3439 35.0629 83.6711 31.7883C86.9177 30.3063 89.9762 28.4461 92.7823 26.2468C98.3091 21.3883 105.454 18.7487 112.827 18.8412C120.74 19.1305 128.568 20.5732 136.061 23.1233C146.791 26.4483 160.003 30.4785 162.685 33.1989C159.752 36.365 156.495 39.2184 152.967 41.7128L149.322 44.5339C140.667 51.3853 137.933 53.4004 135.099 53.4004Z" fill="#F4493A"/>
<g style="mix-blend-mode:color-dodge" opacity="0.3">
<g style="mix-blend-mode:color-dodge">
<path d="M98.5519 47.5064C107.559 37.206 118.11 28.3525 129.834 21.2595C125.941 20.2654 121.983 19.5416 117.989 19.0933C106.359 27.5646 96.4772 38.1863 88.8839 50.3779C87.9222 51.8389 87.0617 53.3502 86.2012 54.8615L91.921 55.7179C94.0469 52.796 96.2741 50.0756 98.5519 47.5064Z" fill="white"/>
</g>
<g style="mix-blend-mode:color-dodge">
<path d="M84.9871 38.3878C89.195 33.0793 93.7253 28.0321 98.5527 23.2744L101.235 20.957C95.988 23.5654 91.0046 26.6695 86.3538 30.2266C84.8859 31.9898 83.418 33.753 82.0513 35.5666C78.4334 40.2475 75.0546 45.1067 71.9277 50.1258C72.9658 50.8725 74.0868 51.498 75.2685 51.9898C78.4574 47.1535 81.6463 42.6699 84.9871 38.3878Z" fill="white"/>
</g>
<g style="mix-blend-mode:color-dodge">
<path d="M150.791 50.9321C156.106 46.7003 160.206 43.6273 162.787 41.1084C150.267 44.6579 138.699 50.9394 128.924 59.4963C137.579 61.3099 137.478 61.6122 150.791 50.9321Z" fill="white"/>
</g>
<g style="mix-blend-mode:color-dodge">
<path d="M149.271 27.1538C133.809 33.8207 120.131 44.0003 109.334 56.8767L114.041 57.2294C126.029 45.0842 140.541 35.696 156.56 29.7231L149.271 27.1538Z" fill="white"/>
</g>
</g>
<g style="mix-blend-mode:multiply">
<g style="mix-blend-mode:multiply">
<path d="M136.011 76.0708C136.011 75.0633 134.948 74.0053 133.277 73.7031C131.607 73.4008 130.038 74.0053 129.886 75.0129C129.734 76.0205 130.949 77.0784 132.619 77.3807C134.29 77.6829 135.606 77.0784 136.011 76.0708Z" fill="#E3E1BA"/>
</g>
<g style="mix-blend-mode:multiply">
<path d="M145.728 15.1137C145.728 14.1061 144.665 13.0482 142.995 12.7459C141.324 12.4436 139.806 12.7459 139.603 14.0557C139.401 15.3656 140.666 16.1212 142.337 16.4235C144.007 16.7258 145.728 16.1716 145.728 15.1137Z" fill="#E3E1BA"/>
</g>
<g style="mix-blend-mode:multiply">
<path d="M101.236 74.2071C101.236 73.1491 100.122 71.9904 98.3 71.6882C96.4777 71.3859 94.9086 71.9904 94.7061 73.0484C94.5036 74.1063 95.8197 75.265 97.6419 75.5673C99.4642 75.8695 101.033 75.265 101.236 74.2071Z" fill="#E3E1BA"/>
</g>
<g style="mix-blend-mode:multiply">
<path d="M97.9448 13.1488C97.9448 12.0909 96.8312 10.9826 95.0089 10.63C93.1867 10.2773 91.6176 10.9322 91.4151 12.0405C91.2126 13.1488 92.5287 14.2068 94.3509 14.5594C96.1732 14.9121 97.7423 14.2572 97.9448 13.1488Z" fill="#E3E1BA"/>
</g>
<g style="mix-blend-mode:multiply">
<path d="M205.457 29.7233C205.457 28.9172 204.647 28.0608 203.331 27.8593C202.015 27.6578 200.8 27.8593 200.699 28.8668C200.598 29.8744 201.509 30.4789 202.825 30.7308C204.141 30.9827 205.356 30.4789 205.457 29.7233Z" fill="#E3E1BA"/>
</g>
<g style="mix-blend-mode:multiply">
<path d="M174.379 24.3329C174.632 22.9727 172.911 21.4614 170.582 21.0583C168.254 20.6553 166.128 21.4614 165.875 22.8719C165.622 24.2825 167.292 25.7435 169.671 26.1465C172.05 26.5495 174.126 25.7435 174.379 24.3329Z" fill="#E3E1BA"/>
</g>
<g style="mix-blend-mode:multiply">
<path d="M60.8429 61.2096C60.8429 59.799 59.4256 58.3381 57.0466 57.9351C54.6676 57.532 52.5922 58.3381 52.3391 59.6983C52.0861 61.0585 53.8071 62.6202 56.1861 63.0232C58.5651 63.4263 60.6405 62.6202 60.8429 61.2096Z" fill="#E3E1BA"/>
</g>
<g style="mix-blend-mode:multiply">
<path d="M69.4482 27.0026C69.7013 25.592 67.9803 24.1311 65.6013 23.728C63.2223 23.325 61.1469 24.1311 60.8938 25.4913C60.6407 26.8515 62.3618 28.4132 64.7408 28.8162C67.1198 29.2192 69.1952 28.4132 69.4482 27.0026Z" fill="#E3E1BA"/>
</g>
<g style="mix-blend-mode:multiply">
<path d="M168.557 63.4764C168.811 61.814 166.836 60.1011 164.053 59.5973C161.269 59.0936 158.991 60.0507 158.535 61.7132C158.08 63.3757 160.256 65.0885 162.99 65.5419C165.723 65.9953 168.254 65.0885 168.557 63.4764Z" fill="#E3E1BA"/>
</g>
<g style="mix-blend-mode:multiply">
<path d="M195.587 45.5918C195.587 44.2316 194.17 42.7707 191.842 42.3173C189.513 41.8639 187.387 42.7203 187.134 44.1309C186.881 45.5415 188.602 46.952 190.93 47.3551C193.259 47.7581 195.334 47.0024 195.587 45.5918Z" fill="#E3E1BA"/>
</g>
<g style="mix-blend-mode:multiply">
<path d="M38.2678 31.7384C38.2678 30.9324 37.4579 30.0759 36.0913 29.8744C34.7246 29.6729 33.611 29.8744 33.4591 30.882C33.3073 31.8895 34.269 32.4941 35.5851 32.746C36.9011 32.9978 38.116 32.4941 38.2678 31.7384Z" fill="#E3E1BA"/>
</g>
<g style="mix-blend-mode:multiply">
<path d="M28.3459 47.6075C28.599 46.2473 26.9286 44.7864 24.6002 44.3833C22.2717 43.9803 20.1964 44.736 19.9433 46.1466C19.6902 47.5571 21.3606 48.9677 23.689 49.3707C26.0174 49.7738 28.1434 49.0181 28.3459 47.6075Z" fill="#E3E1BA"/>
</g>
</g>
<g style="mix-blend-mode:color-dodge" opacity="0.3">
<path d="M24.8535 197.581C17.9188 198.236 16.6028 149.521 14.4768 127.808C12.3509 106.095 9.06071 78.8409 15.9447 78.186C22.8288 77.5311 13.7682 105.743 18.6781 128.564C26.4732 165.289 31.7881 196.876 24.8535 197.581Z" fill="white"/>
</g>
</g>
<defs>
<filter id="filter0_d_1203_16936" x="0" y="0" width="262" height="268" filterUnits="userSpaceOnUse" color-interpolation-filters="sRGB">
<feFlood flood-opacity="0" result="BackgroundImageFix"/>
<feColorMatrix in="SourceAlpha" type="matrix" values="0 0 0 0 0 0 0 0 0 0 0 0 0 0 0 0 0 0 127 0" result="hardAlpha"/>
<feOffset dy="4"/>
<feGaussianBlur stdDeviation="2"/>
<feComposite in2="hardAlpha" operator="out"/>
<feColorMatrix type="matrix" values="0 0 0 0 0 0 0 0 0 0 0 0 0 0 0 0 0 0 0.25 0"/>
<feBlend mode="normal" in2="BackgroundImageFix" result="effect1_dropShadow_1203_16936"/>
<feBlend mode="normal" in="SourceGraphic" in2="effect1_dropShadow_1203_16936" result="shape"/>
</filter>
<clipPath id="clip0_1203_16936">
<rect width="254" height="260" fill="white" transform="translate(4)"/>
</clipPath>
</defs>
</svg>
