<svg width="426" height="195" viewBox="0 0 426 195" fill="none" xmlns="http://www.w3.org/2000/svg">
<path opacity="0.04" d="M425.818 27.6155L252.418 27.7181L252.433 52.5181L401.633 52.4298L401.685 141.43L252.685 141.518L252.701 167.318L425.901 167.215L425.818 27.6155ZM358.628 44.6552L334.828 44.6693L334.892 152.269L358.692 152.255L358.628 44.6552ZM289.628 44.4961L265.428 44.5104L265.492 152.31L289.692 152.296L289.628 44.4961ZM169.007 8.76739L144.607 8.78183L144.712 185.782L169.112 185.767L169.007 8.76739ZM78.2313 50.0211L53.8313 50.0355L53.8862 142.836L78.2862 142.821L78.2313 50.0211ZM207.852 84.1444L20.0516 84.2555L20.0667 109.856L207.867 109.744L207.852 84.1444ZM160.247 76.9726C123.439 62.7944 87.4217 33.8157 69.4023 1.02631C64.6055 6.42915 55.4103 14.4346 49.4126 18.4381C71.4333 53.4251 109.65 81.8025 153.26 98.9767L160.247 76.9726ZM159.671 116.973L152.458 95.1772C109.868 112.602 71.6849 140.625 50.1057 175.838C56.9081 179.834 66.9132 188.428 71.9167 194.425C89.2969 160.815 124.08 131.594 159.671 116.973ZM-42.5412 96.4925C-63.1304 114.705 -85.3101 149.118 -97.693 177.925C-90.6906 182.121 -82.2874 187.516 -76.2841 193.113C-66.3025 161.907 -46.5214 129.895 -21.5347 107.48L-21.5491 83.0801C-42.1585 67.2923 -65.7776 34.9063 -78.5971 1.91385C-83.5943 6.71681 -92.5906 12.9221 -98.189 15.7254C-84.5702 47.5174 -62.5514 79.3044 -42.5412 96.4925ZM-106.167 52.3302L-123.367 52.3403L-123.315 140.54L-106.115 140.53L-106.167 52.3302ZM-61.7484 84.3039L-88.7484 84.3199L-88.7337 109.12L-61.7337 109.104L-61.7484 84.3039ZM-185.988 16.7774L-208.186 19.9905C-205.973 42.9892 -203.154 74.5875 -200.137 104.186L-178.737 103.973C-181.755 72.5749 -184.375 39.1764 -185.988 16.7774ZM-145.737 103.554L-151.349 83.1569C-184.139 100.976 -202.721 130.387 -210.095 174.792C-203.693 177.988 -194.089 184.182 -189.086 189.379C-184.311 147.576 -170.129 117.768 -145.737 103.554ZM-141.702 162.551C-151.109 150.557 -163.321 130.764 -170.33 115.968L-183.321 130.376C-176.912 145.172 -166.301 164.366 -156.092 179.96L-141.702 162.551ZM-77.1673 52.313L-95.7673 52.324L-95.72 132.324L-134.32 132.347L-134.367 52.3468L-152.967 52.3578L-152.906 156.558L-77.1057 156.513L-77.1673 52.313ZM-77.1761 37.513L-191.376 37.5806L-188.762 61.379L-77.162 61.313L-77.1761 37.513Z" fill="#121212"/>
</svg>
