<svg width="190" height="42" viewBox="0 0 190 42" fill="none" xmlns="http://www.w3.org/2000/svg">
<g clip-path="url(#clip0_1203_16832)">
<path d="M21 42C32.598 42 42 32.598 42 21C42 9.40202 32.598 0 21 0C9.40202 0 0 9.40202 0 21C0 32.598 9.40202 42 21 42Z" fill="#121212"/>
<path d="M22.7143 33V22.7778H26.1429L27 18.5185H22.7143V16.8148C22.7143 15.1111 23.5731 14.2593 25.2857 14.2593H27V10C26.1429 10 25.08 10 23.5714 10C20.4214 10 18.4286 12.4542 18.4286 15.963V18.5185H15V22.7778H18.4286V33H22.7143Z" fill="white"/>
</g>
<circle cx="95" cy="21" r="21" fill="#121212"/>
<path d="M91.9753 29.9999C99.1455 29.9999 103.067 23.8448 103.067 18.5075C103.067 18.3327 103.063 18.1586 103.056 17.9855C103.817 17.4153 104.478 16.7037 105 15.8938C104.302 16.2156 103.55 16.432 102.761 16.5299C103.566 16.0296 104.184 15.2386 104.476 14.2957C103.722 14.7584 102.888 15.0945 102 15.2761C101.289 14.491 100.276 14 99.1547 14C97.0021 14 95.2563 15.8088 95.2563 18.0386C95.2563 18.3557 95.2906 18.6639 95.3574 18.9596C92.1176 18.7907 89.2446 17.1835 87.3222 14.7395C86.9875 15.3363 86.7944 16.0298 86.7944 16.7697C86.7944 18.1709 87.4826 19.4082 88.5291 20.1318C87.8895 20.1114 87.2888 19.9295 86.7636 19.6267C86.763 19.6437 86.763 19.6602 86.763 19.6782C86.763 21.6344 88.1067 23.2677 89.8906 23.6378C89.5629 23.7301 89.2182 23.7799 88.8626 23.7799C88.6119 23.7799 88.3674 23.7543 88.1299 23.707C88.6262 25.3119 90.0654 26.4797 91.7715 26.5125C90.4373 27.5961 88.7566 28.2415 86.9299 28.2415C86.6157 28.2415 86.3051 28.2228 86 28.1855C87.7252 29.3313 89.7738 30 91.9755 30" fill="white"/>
<g clip-path="url(#clip1_1203_16832)">
<path d="M169 0C180.55 0 190 9.45 190 21C190 32.55 180.55 42 169 42C157.45 42 148 32.55 148 21C148 9.45 157.45 0 169 0Z" fill="#121212"/>
<path d="M173.627 11H164.174C161.289 11 159 13.4 159 16.4V25.6C159 28.5 161.289 30.9 164.274 31H173.726C176.612 31 179 28.6 179 25.6V16.4C178.9 13.4 176.612 11 173.627 11ZM177.109 25.5C177.109 27.5 175.517 29.2 173.428 29.2H164.373C162.383 29.2 160.692 27.5 160.791 25.5V16.5C160.791 14.5 162.383 12.8 164.373 12.8H173.428C175.418 12.8 177.109 14.5 177.109 16.5V25.5Z" fill="white"/>
<path d="M169.098 16.0031C166.355 15.9051 164.003 18.1593 164.003 20.9035C163.905 23.6478 166.159 26 168.902 26C171.645 26 173.997 23.8438 173.997 21.0995V21.0015C174.095 18.2573 171.841 16.0031 169.098 16.0031ZM169.098 24.2358C167.334 24.2358 165.865 22.8637 165.767 21.0995C165.767 19.3354 167.138 17.8653 168.902 17.7672C170.666 17.6692 172.135 19.1394 172.233 20.9035V21.0015C172.331 22.7657 170.862 24.2358 169.098 24.2358Z" fill="white"/>
<path d="M174 14C174.545 14 175 14.4167 175 15C175 15.5833 174.545 16 174 16C173.455 16 173 15.5833 173 15C173 14.4167 173.455 14 174 14Z" fill="white"/>
</g>
<defs>
<clipPath id="clip0_1203_16832">
<rect width="42" height="42" fill="white"/>
</clipPath>
<clipPath id="clip1_1203_16832">
<rect width="42" height="42" fill="white" transform="translate(148)"/>
</clipPath>
</defs>
</svg>
