<svg width="424" height="276" viewBox="0 0 424 276" fill="none" xmlns="http://www.w3.org/2000/svg">
<path d="M181.706 131.746C120.368 104.36 31.8249 99.2726 13.6039 126.442C-4.61703 153.611 -12.9518 225.917 107.415 248.72C132.202 253.411 211.581 253.808 204.834 232.809C199.097 214.768 97.4563 190.846 110.085 171.94C120.296 156.678 196.318 187.347 218.869 183.233C237.27 179.878 204.725 142.029 181.706 131.746Z" fill="#B8B5AA"/>
<path d="M201.007 119.297C201.585 105.081 189.461 81.5204 156.844 66.8354C95.5063 39.1973 29.1171 50.9597 9.95807 77.4071C-1.40747 93.1746 -0.0363909 112.947 0.144014 136.833C0.540906 168.223 -2.59814 203.835 79.1255 233.025C102.867 241.504 183.544 233.025 180.152 222.2C176.761 211.376 177.591 179.625 180.152 172.589C184.837 173.339 189.611 173.339 194.296 172.589C207.538 169.703 200.394 133.513 201.007 119.297Z" fill="#222C36"/>
<path d="M180.081 222.345C176.472 211.52 177.519 179.769 180.081 172.733C184.765 173.483 189.54 173.483 194.224 172.733C207.61 169.702 200.466 133.513 201.08 119.297C201.693 105.081 189.462 81.5203 156.844 66.8353C152.875 65.0312 148.87 63.2272 144.865 61.9644C104.009 106.94 81.4822 165.588 81.7236 226.35C81.7236 228.875 81.7236 231.365 81.904 233.855C108.568 240.926 183.4 232.808 180.081 222.345Z" fill="#3C4E5E"/>
<g opacity="0.5">
<path d="M123.074 208.346C123.071 217.63 123.734 226.903 125.059 236.092C153.382 234.576 182.175 228.876 180.082 222.345C176.474 211.521 177.521 179.769 180.082 172.734C184.767 173.483 189.541 173.483 194.226 172.734C207.612 169.703 200.468 133.513 201.082 119.297C201.478 109.123 195.272 94.0407 179.613 80.8711C145.95 105.081 123.074 153.069 123.074 208.346Z" fill="url(#paint0_linear_23_12)" style="mix-blend-mode:screen"/>
</g>
<g opacity="0.5">
<path d="M159.694 208.346C159.695 216.17 160.141 223.988 161.029 231.762C173.153 229.237 181.235 225.917 180.08 222.345C176.472 211.521 177.518 179.769 180.08 172.734C184.765 173.484 189.539 173.484 194.224 172.734C207.61 169.703 200.466 133.513 201.079 119.298C201.072 113.542 199.713 107.87 197.11 102.736C174.848 122.617 159.694 162.414 159.694 208.346Z" fill="url(#paint1_linear_23_12)" style="mix-blend-mode:screen"/>
</g>
<path opacity="0.1" d="M30.8142 87.041C18.0054 87.041 7.46973 124.89 7.57798 171.651C7.57798 175.62 7.57798 179.589 7.93879 183.486C14.5416 196.222 26.9535 208.742 50.1897 220.721C50.9835 206.289 51.0917 189.367 51.0557 172.228C50.9835 125.467 43.6951 87.041 30.8142 87.041Z" fill="white"/>
<path d="M197.615 117.277C197.615 117.277 90.4182 72.6083 62.6719 92.5972C48.8168 102.664 55.2031 148.595 67.0016 161.151C86.5576 181.645 179.466 174.285 180.008 172.733C184.692 173.483 189.467 173.483 194.151 172.733C195.513 172.457 196.766 171.793 197.759 170.821L197.615 117.277Z" fill="#E61300"/>
<path d="M156.846 70.227C95.5077 42.8414 30.5618 50.5267 12.1965 77.7679C-6.16872 105.009 -7.93668 150.868 79.1269 181.97C102.868 190.485 183.546 181.97 180.154 171.146C174.417 153.105 72.7767 129.147 85.405 110.277C95.6521 94.9786 172 126.586 194.226 121.534C207.539 118.684 179.865 80.5101 156.846 70.227Z" fill="#FF685A"/>
<path d="M80.4576 107.066C81.6122 103.061 77.6433 98.4423 71.6538 96.7104C65.6643 94.9785 59.8192 96.7104 58.6646 100.824C57.51 104.937 61.4789 109.447 67.5045 111.143C73.53 112.839 79.3391 111.035 80.4576 107.066Z" fill="white"/>
<path d="M14.9375 163.28C15.9117 163.28 16.6333 159.672 16.5972 155.198C16.5611 150.724 15.6952 147.152 14.7571 147.152C13.819 147.152 13.0252 150.76 13.0973 155.234C13.1695 159.708 13.9633 163.28 14.9375 163.28Z" fill="white"/>
<path d="M13.641 180.31C14.6152 180.31 15.3729 178.47 15.3368 176.233C15.3007 173.996 14.3987 172.228 13.5688 172.228C12.7389 172.228 11.8369 174.068 11.8369 176.269C11.8369 178.47 12.6668 180.31 13.641 180.31Z" fill="white"/>
<path opacity="0.5" d="M55.3131 98.3704C55.7821 96.7468 54.1585 94.7623 51.705 94.1489C49.2514 93.5356 46.8701 94.1489 46.401 95.8087C45.932 97.4684 47.5556 99.4168 50.0091 100.03C52.4627 100.644 54.844 99.9941 55.3131 98.3704Z" fill="white"/>
<path opacity="0.5" d="M40.8803 92.5973C41.2051 91.4427 40.1226 90.1437 38.4268 89.6747C36.731 89.2056 35.0713 89.6747 34.8187 90.8293C34.5661 91.9839 35.6125 93.2467 37.3083 93.7518C39.0041 94.257 40.5917 93.7158 40.8803 92.5973Z" fill="white"/>
<path opacity="0.5" d="M28.4657 88.1232C28.7183 87.1851 27.8162 86.1027 26.4091 85.7058C25.0019 85.3089 23.6308 85.7058 23.3783 86.6439C23.1257 87.582 24.0277 88.6644 25.4349 89.0613C26.842 89.4582 28.177 89.0613 28.4657 88.1232Z" fill="white"/>
<path opacity="0.5" d="M18.0048 83.4326C18.2573 82.4945 17.3553 81.4121 15.9481 81.0152C14.541 80.6183 13.1699 81.0152 12.9173 81.9894C12.6648 82.9636 13.5668 83.9738 14.9739 84.4068C16.3811 84.8398 17.7161 84.5151 18.0048 83.4326Z" fill="white"/>
<path opacity="0.5" d="M149.447 151.229C118.633 137.518 77.2844 122.869 85.5469 110.421C92.4023 100.21 128.844 110.963 158.755 117.638C151.11 114.43 143.234 111.8 135.194 109.772C104.489 102.159 83.5986 99.9579 80.3873 109.772C77.1761 119.586 97.3815 133.946 125.128 144.085C133.068 146.998 141.192 149.384 149.447 151.229V151.229Z" fill="white"/>
<path d="M58.4518 117.132C40.4112 99.7413 20.6388 90.6128 11.5464 99.8857C2.45393 109.159 9.95879 130.735 27.9272 148.126C45.8955 165.517 74.8326 170.352 83.8167 161.079C92.8009 151.806 76.4562 134.487 58.4518 117.132Z" fill="#F4493A"/>
<path d="M70.3933 56.8771C49.0333 58.9337 32.436 67.99 33.3019 77.1546C34.1679 86.3192 52.2084 92.0561 73.5684 89.9995C94.9284 87.9429 120.474 85.1646 119.391 76C118.309 66.8354 91.7172 54.8204 70.3933 56.8771Z" fill="#F4493A"/>
<g style="mix-blend-mode:color-dodge" opacity="0.2">
<path d="M29.623 116.447C37.6691 110.926 51.8128 115.725 60.364 116.699C68.9153 117.673 76.1676 118.215 83.2755 114.029C84.1054 113.56 84.0693 112.009 82.9869 111.864C69.6369 110.024 55.89 109.014 42.3957 107.679C38.1946 107.103 33.9161 107.583 29.9472 109.076C25.9783 110.569 22.4442 113.028 19.6646 116.23C14.9979 122.125 11.8508 129.076 10.5 136.472C12.6425 139.781 15.0562 142.907 17.7162 145.817C17.3728 143.037 17.3728 140.226 17.7162 137.446C18.1648 133.319 19.4524 129.327 21.5 125.716C23.5475 122.105 26.3118 118.951 29.623 116.447V116.447Z" fill="white"/>
<path d="M23.3796 101.87C31.101 101.87 38.245 105.478 45.8942 104.504C46.7962 104.504 46.6519 103.025 45.8942 102.808C29.1526 98.2261 11.2564 91.6233 2.59693 111.396C2.41653 111.793 2.2722 112.226 2.0918 112.659C2.42593 116.789 3.27438 120.862 4.61747 124.782C4.61747 123.302 4.9422 121.823 5.19477 120.344C7.17923 110.313 12.0863 101.906 23.3796 101.87Z" fill="white"/>
<path d="M171.744 82.5667C172.358 82.2059 173.007 81.9534 173.657 81.6286C171.78 80.005 170.048 78.4174 167.992 77.0103C163.359 79.5401 159.097 82.6969 155.327 86.3913C149.987 91.5509 139.163 102.628 136.385 112.514L144.034 114.318C147.391 107.431 151.584 100.984 156.518 95.123C160.867 90.1268 166.011 85.8841 171.744 82.5667V82.5667Z" fill="white"/>
<path d="M105.646 132.07C98.2199 148.66 94.8437 166.778 95.7962 184.929C98.2016 185.145 100.799 185.29 103.59 185.362C102.86 182.289 102.366 179.165 102.11 176.017C101.558 161.391 103.361 146.772 107.45 132.72V132.72L105.791 131.89C105.791 131.89 105.682 131.998 105.646 132.07Z" fill="white"/>
<path d="M55.3473 126.946C56.6823 126.694 56.3576 124.529 55.0226 124.565C39.3273 125.287 29.1164 138.059 25.1475 152.961C26.5907 154.187 28.1061 155.39 29.6937 156.569C29.6937 155.775 29.6937 154.981 29.9823 154.187C32.4358 139.935 40.8427 129.652 55.3473 126.946Z" fill="white"/>
<path d="M132.778 166.672C130.623 159.016 129.817 151.043 130.396 143.111L124.299 140.477C121.087 153.286 124.299 171.435 131.731 184.64C134.979 184.388 138.19 184.063 141.365 183.738C137.646 178.522 134.75 172.767 132.778 166.672Z" fill="white"/>
<path d="M136.641 74.7371C129.11 84.8895 123.172 96.1319 119.033 108.076C118.962 108.274 118.962 108.491 119.033 108.689L120.657 109.014C120.673 108.931 120.673 108.845 120.657 108.762C125.221 99.1967 130.466 89.9723 136.352 81.1595C139.895 76.0012 144.23 71.4348 149.197 67.6291L149.738 67.3044L145.192 65.3921C142.094 68.2714 139.234 71.3966 136.641 74.7371V74.7371Z" fill="white"/>
<path d="M89.3362 121.859C81.3623 129.508 77.1048 142.1 73.208 151.842C69.8886 160.042 68.0442 168.763 67.7598 177.604C70.0329 178.542 72.3781 179.444 74.976 180.382C74.8711 171.236 76.0863 162.121 78.5841 153.322C82.0022 143.142 87.2206 133.658 93.9907 125.323C92.3625 124.275 90.8074 123.118 89.3362 121.859V121.859Z" fill="white"/>
<path d="M88.6162 53.3772L83.7452 53.1968C74.3281 70.8765 73.859 92.6695 92.2964 106.056C92.549 106.236 92.8377 106.056 92.8016 105.695C89.9151 93.6437 79.3073 86.8243 81.7608 72.861C83.1108 66.0743 85.4191 59.514 88.6162 53.3772V53.3772Z" fill="white"/>
<path d="M161.029 172.3C156.011 166.179 152.247 159.129 149.952 151.554L144.576 149.172C146.62 158.78 150.706 167.837 156.555 175.728C157.772 177.506 159.085 179.216 160.488 180.852C163.086 180.31 165.503 179.769 167.704 179.156C165.326 177.025 163.095 174.735 161.029 172.3V172.3Z" fill="white"/>
<path d="M42.2858 164.471C42.1422 159.795 43.1694 155.158 45.274 150.98C47.3786 146.802 50.494 143.217 54.3368 140.549C59.8933 136.328 66.5322 133.333 72.3774 129.725C77.4648 126.514 81.2172 122.148 86.8098 119.622C86.108 118.838 85.5134 117.965 85.0418 117.024C78.872 117.277 74.903 122.04 69.8878 125.576C61.986 131.204 52.7132 134.271 45.2083 140.621C39.542 145.926 35.9911 153.104 35.2139 160.827C37.4148 162.342 39.7601 163.785 42.2136 165.265L42.2858 164.471Z" fill="white"/>
<path d="M107.161 68.7118C101.693 80.4469 99.0373 93.2951 99.4034 106.236L103.481 106.453C104.414 94.4576 107.378 82.7083 112.248 71.7066C114.708 66.7686 117.868 62.2115 121.629 58.1762C118.887 57.5267 116.181 56.9494 113.475 56.4082C111.109 60.3698 109 64.4795 107.161 68.7118V68.7118Z" fill="white"/>
<path d="M188.521 97.8652C187.186 97.8652 185.887 98.1178 184.624 98.3343C179.205 99.3829 174.115 101.711 169.779 105.125C165.442 108.54 161.984 112.941 159.692 117.962L166.259 119.37C171.55 112.892 178.665 108.153 186.681 105.767C188.774 105.165 190.929 104.802 193.103 104.685C191.693 102.335 190.163 100.059 188.521 97.8652V97.8652Z" fill="white"/>
<path d="M25.2207 68.1344C25.591 70.2557 26.4313 72.2672 27.6799 74.0215C28.9286 75.7759 30.554 77.2286 32.437 78.2732C32.6772 78.391 32.951 78.4218 33.2114 78.3601C33.4718 78.2985 33.7027 78.1483 33.8647 77.9352C34.0266 77.7221 34.1095 77.4594 34.0992 77.192C34.0888 76.9246 33.9859 76.6691 33.808 76.4691C31.0062 73.6127 29.0677 70.0233 28.2155 66.1139C28.0913 65.4581 28.0069 64.7954 27.9629 64.1294C26.8083 64.7789 25.6537 65.4283 24.5713 66.1139L25.2207 68.1344Z" fill="white"/>
<path d="M65.1635 53.8104C62.3967 62.3146 61.8992 71.394 63.7202 80.1496C63.9728 81.5568 66.3181 80.9434 65.9212 79.5362C62.9986 69.5418 67.0036 61.7843 70.6839 53.3774C68.8077 53.4737 66.9675 53.618 65.1635 53.8104Z" fill="white"/>
<path d="M49.4678 56.2637C46.9782 56.841 44.5968 57.4904 42.2516 58.176C40.7004 60.5219 39.6278 63.1511 39.0953 65.9126C38.5629 68.6741 38.5809 71.5136 39.1486 74.2681C41.6743 83.4327 50.4781 88.0872 57.6943 92.5612C65.8486 97.5765 72.9926 105.623 82.951 105.875C83.9974 105.875 84.0695 104.504 83.2036 104.179C70.1422 99.597 38.896 79.8246 46.5452 62.181C47.4112 60.1604 48.4214 58.176 49.4678 56.2637Z" fill="white"/>
</g>
<path opacity="0.1" d="M360.76 17.52L345.76 22.44C349.24 29.88 355.96 47.4 358.24 54.96L373.36 49.68C370.96 42 363.64 23.52 360.76 17.52ZM415.48 27.12L397.6 22.08C395.56 40.44 388.12 60.96 379.12 72.36C366.76 87.84 348.04 98.64 331.72 103.32L345.16 116.88C362.2 110.4 379.72 98.28 392.32 81.6C402.16 68.64 409 49.56 412.36 36.48C413.08 33.84 414.16 30.12 415.48 27.12ZM327.28 24.96L312.04 30.36C315.4 36.72 323.32 56.52 325.84 64.2L341.2 58.56C338.44 50.52 331 32.64 327.28 24.96ZM358.96 168.12C358.96 174.84 358.96 183.96 358.96 192C358.96 214.32 351.52 233.16 326.2 244.8L341.2 255.84C368.68 239.4 375.4 218.04 375.4 192C375.4 183.96 375.4 174.96 375.4 168.24C375.4 164.52 375.76 157.92 376.36 154.08H357.4C358.48 157.92 358.96 164.16 358.96 168.12ZM314.32 180.48V197.16C318.16 196.8 322.96 196.56 328.12 196.56C334.6 196.56 395.08 196.56 402.28 196.56C407.08 196.56 413.08 196.8 415.6 197.04V180.6C413.08 180.96 407.92 181.32 402.4 181.32C395.08 181.32 334.6 181.32 327.76 181.32C322.96 181.32 318.04 180.96 314.32 180.48Z" fill="#B1454A"/>
<defs>
<linearGradient id="paint0_linear_23_12" x1="123.074" y1="158.481" x2="202.38" y2="158.481" gradientUnits="userSpaceOnUse">
<stop/>
<stop offset="0.99" stop-color="white"/>
</linearGradient>
<linearGradient id="paint1_linear_23_12" x1="159.694" y1="167.249" x2="202.378" y2="167.249" gradientUnits="userSpaceOnUse">
<stop/>
<stop offset="0.99" stop-color="white"/>
</linearGradient>
</defs>
</svg>
