<svg width="548" height="234" viewBox="0 0 548 234" fill="none" xmlns="http://www.w3.org/2000/svg">
<path opacity="0.7" d="M547.241 32.7497L339.161 32.8715L339.179 62.6315L518.219 62.5267L518.283 169.327L339.483 169.431L339.502 200.391L547.341 200.27L547.241 32.7497ZM466.614 53.1969L438.054 53.2136L438.131 182.334L466.691 182.317L466.614 53.1969ZM383.813 53.0054L354.773 53.0224L354.851 182.382L383.891 182.365L383.813 53.0054ZM239.068 10.1301L209.788 10.1472L209.915 222.547L239.195 222.53L239.068 10.1301ZM130.137 59.6338L100.857 59.651L100.924 171.011L130.204 170.994L130.137 59.6338ZM285.682 100.583L60.3219 100.715L60.3403 131.435L285.7 131.303L285.682 100.583ZM228.557 91.9763C184.387 74.9621 141.166 40.1874 119.542 0.840044C113.786 7.32341 102.752 16.9299 95.5547 21.7341C121.98 63.7186 167.84 97.7718 220.173 118.381L228.557 91.9763ZM227.865 139.977L219.21 113.822C168.102 134.732 122.282 168.358 96.3876 210.614C104.55 215.409 116.557 225.722 122.561 232.918C143.417 192.586 185.156 157.522 227.865 139.977ZM-14.7893 115.399C-39.4962 137.253 -66.1116 178.549 -80.9709 213.117C-72.5679 218.153 -62.484 224.627 -55.28 231.342C-43.3024 193.895 -19.5653 155.481 10.4186 128.584L10.4011 99.3039C-14.3303 80.3584 -42.6735 41.495 -58.0572 1.90398C-64.0537 7.66749 -74.8493 15.1138 -81.5673 18.4777C-65.2245 56.6282 -38.8016 94.7727 -14.7893 115.399ZM-91.141 62.4034L-111.781 62.4154L-111.718 168.255L-91.0777 168.243L-91.141 62.4034ZM-37.8381 100.772L-70.238 100.791L-70.2203 130.551L-37.8203 130.532L-37.8381 100.772ZM-186.927 19.7394L-213.564 23.595C-210.908 51.1934 -207.525 89.1115 -203.904 124.629L-178.224 124.374C-181.846 86.6964 -184.99 46.6183 -186.927 19.7394ZM-138.624 123.871L-145.359 99.3951C-184.706 120.778 -207.005 156.071 -215.853 209.356C-208.171 213.192 -196.646 220.625 -190.643 226.862C-184.913 176.698 -167.894 140.928 -138.624 123.871ZM-133.782 194.668C-145.071 180.275 -159.725 156.524 -168.135 138.768L-183.725 156.058C-176.034 173.813 -163.301 196.846 -151.049 215.558L-133.782 194.668ZM-56.341 62.383L-78.661 62.396L-78.6036 158.396L-124.924 158.423L-124.981 62.4232L-147.301 62.4362L-147.226 187.476L-56.2663 187.423L-56.341 62.383ZM-56.3516 44.623L-193.392 44.7032L-190.255 73.2614L-56.3346 73.183L-56.3516 44.623Z" fill="white"/>
</svg>
