<svg width="116" height="247" viewBox="0 0 116 247" fill="none" xmlns="http://www.w3.org/2000/svg">
<path opacity="0.1" d="M66.2 21.12V34.08H104.6V21.12H66.2ZM67.04 -3.39746e-06C64.52 18.48 58.88 36 49.52 46.56C52.88 48.24 59.12 52.44 61.52 54.6C71.12 42.48 77.6 23.16 81.08 2.03999L67.04 -3.39746e-06ZM83.84 26.28H76.52V46.2C76.52 58.56 71.6 86.04 48.32 100.92C50.84 103.68 54.92 109.68 56.6 112.92C73.64 101.88 81.92 81.48 83.72 71.16C85.16 81.72 92.12 102.36 107.12 113.04C109.28 109.44 113.48 103.44 116 100.2C95.48 85.56 90.8 58.08 90.8 46.2V26.28H83.84ZM101.12 21.12V23.4C100.04 32.88 97.64 45.12 95 52.44L106.4 56.16C110 47.64 113.36 34.68 115.16 22.8L105.56 20.52L103.28 21.12H101.12ZM26.24 23.04V36.84H38.96V23.04H26.24ZM11 32.4V99.24H23.84V32.4H11ZM18.92 48V57.6H46.64V48H18.92ZM2.48 95.28L7.04 108.6C18.56 105 32.84 100.32 46.4 95.88L44.72 84.36C29.24 88.68 13.04 93 2.48 95.28ZM33.2 78C37.16 86.04 41.24 96.96 42.68 103.56L55.16 98.52C53.36 92.04 48.8 81.72 44.84 73.92L33.2 78ZM18.92 32.4V42.36H40.04V63.6H18.92V73.44H52.64V32.4H18.92ZM23.72 0.119995C19.52 9.36 11.84 20.28 0.44 28.44C3.08 30.48 6.92 35.4 8.6 38.4C22.16 27.96 30.32 15.84 35.6 6.6V2.76H31.4V0.119995H23.72ZM27.44 0.119995V9.59999H29.72C35.96 15.24 44.24 25.2 48.2 30.96L58.04 21.6C53.24 15.48 44.24 6.47999 37.16 0.119995H27.44ZM46.88 143.04H30.08C31.04 146.4 31.4 150.48 31.4 158.04C31.4 164.52 31.4 180.48 31.4 188.64L45.8 194.28C45.8 186.24 45.68 163.8 45.8 158.04C45.8 150.84 46.28 146.4 46.88 143.04ZM87.2 154.08L77.12 164.04C84.08 168.96 95.36 180 101.96 188.04L112.76 177C107.36 170.52 94.76 158.76 87.2 154.08ZM8.36 157.44L9.2 171.48C17.12 172.32 23.72 172.56 28.76 172.56C37.52 172.56 53.24 171.36 67.16 168.24V153.72C53.48 157.56 39.68 159.12 27.68 159.12C22.16 159.12 14.96 158.4 8.36 157.44ZM43.16 213.24L28.4 217.56C28.4 220.8 28.16 225.36 28.16 229.56C28.16 237.96 29.36 246.84 57.44 246.84C65.6 246.84 78.08 245.88 83.48 244.2C97.28 240 100.64 233.16 101.24 222.36C101.48 217.32 101.36 214.56 101.36 208.2L84.8 203.28C85.52 208.8 85.64 213.36 85.64 218.04C85.64 224.16 83.12 228.24 76.88 230.16C72.32 231.48 64.52 232.32 58.52 232.32C44.24 232.32 42.92 229.68 42.92 224.52C42.92 220.8 43.04 215.76 43.16 213.24ZM49.28 199.44C49.28 188.4 43.16 180.6 30.8 180.6C17.84 180.6 8.6 191.28 8.6 205.56C8.6 220.92 17.6 227.04 26.36 227.04C42.8 227.04 49.28 213.48 49.28 199.44ZM27.8 212.76C24.44 212.76 21.2 209.64 21.2 204.36C21.2 197.4 25.16 192.6 29.96 192.6C33.32 192.6 35.48 195.36 35.48 200.04C35.48 206.88 33.44 212.76 27.8 212.76Z" fill="#B1454A"/>
</svg>
